<svg xmlns="http://www.w3.org/2000/svg" viewBox="0 0 661.11 264.63"><title>header-logo</title><path d="M132.31,0a132.31,132.31,0,1,0,99.33,219.67V45A132,132,0,0,0,132.31,0Zm62.5,168.61,8.5,10.46-42.22,8.09S155,188,156.86,193c1,2.58,5.74,13.35,10.15,23.19l-3.44,1.29-3.45,1.29c-3.12-10.33-6.56-21.6-7.52-24.16-1.86-5-7-1.63-7-1.63l-37.2,21.54L108,201s-0.47-5.61-5.48-6.71L50.67,175.59s12.14-4.11,3.08-15L37.69,139.16,63,138a3.54,3.54,0,0,0,3.39-3.13c0.33-3,.46-16.55.46-16.55l33,15.68s4.18,1.75,1.42-5.1-27.9-47-27.9-47L89,85.59S94.53,88.1,96,82s3.41-36.11,3.41-36.11l0.27,0.27c2.44,2.43,21.46,21.21,26.24,24.67C131,74.5,133.5,69,133.5,69l9.44-13.06s7.31,46.83,9.7,53.81,4.41,2.92,4.41,2.92l14.67-33.47s9,10.14,11.19,12.2a3.55,3.55,0,0,0,4.62.14l19.84-15.69,1.87,26.66c0.32,14.2,12.2,9.34,12.2,9.34l-26.88,48.08C191.5,164.08,194.81,168.61,194.81,168.61Z" fill="#0092c8"/><path d="M311.23,80.35l1.45,21.49h-1.45q-2.89-9.65-8.25-13.89a20.12,20.12,0,0,0-12.87-4.24,20.93,20.93,0,0,0-11.37,3.19q-5.08,3.19-8,10.19t-2.91,17.39a36.9,36.9,0,0,0,2.75,14.87,20.59,20.59,0,0,0,8.27,9.65,23.79,23.79,0,0,0,12.61,3.36,21.9,21.9,0,0,0,10.86-2.63q4.71-2.64,10.35-10.47l1.45,0.93q-4.76,8.44-11.1,12.35A28.08,28.08,0,0,1,288,146.46q-15.71,0-24.33-11.65a33.32,33.32,0,0,1-6.43-20.42A36.26,36.26,0,0,1,261.44,97a30.7,30.7,0,0,1,11.68-12.28,31.56,31.56,0,0,1,16.25-4.36,29.77,29.77,0,0,1,13.52,3.36,7.36,7.36,0,0,0,2.8,1,3.08,3.08,0,0,0,2.19-.89,7.26,7.26,0,0,0,1.72-3.5h1.63Z" fill="#ed1c24"/><path d="M361.11,123.84H336.64l-4.29,10a15.75,15.75,0,0,0-1.58,5.5,3.19,3.19,0,0,0,1.37,2.54q1.37,1.1,5.94,1.42V145H318.18v-1.72q4-.7,5.13-1.82,2.38-2.24,5.27-9.09l22.24-52h1.63l22,52.59q2.66,6.34,4.83,8.23a9.83,9.83,0,0,0,6,2.12V145H360.37v-1.72q3.77-.19,5.1-1.26a3.24,3.24,0,0,0,1.33-2.61q0-2.05-1.86-6.48Zm-1.31-3.45L349.08,94.85l-11,25.55h21.73Z" fill="#ed1c24"/><path d="M385.12,81.79h17.15l38.65,47.41V92.75q0-5.83-1.31-7.27-1.73-2-5.46-2H432V81.79h22v1.73h-2.24q-4,0-5.69,2.42-1,1.49-1,6.81V146h-1.68L401.67,95.13v38.93q0,5.83,1.26,7.27,1.77,2,5.46,2h2.23V145h-22v-1.72h2.2q4.06,0,5.73-2.43,1-1.49,1-6.8v-44a29.05,29.05,0,0,0-4.17-4.24,15.33,15.33,0,0,0-4.17-1.91,14.93,14.93,0,0,0-4.1-.42V81.79Z" fill="#ed1c24"/><path d="M499,123.84H474.54l-4.29,10a15.83,15.83,0,0,0-1.58,5.5,3.2,3.2,0,0,0,1.38,2.54q1.37,1.1,5.95,1.42V145H456.08v-1.72q4-.7,5.13-1.82,2.37-2.24,5.26-9.09l22.24-52h1.63l22,52.59q2.66,6.34,4.83,8.23a9.83,9.83,0,0,0,6,2.12V145H498.27v-1.72q3.78-.19,5.1-1.26a3.24,3.24,0,0,0,1.33-2.61q0-2.05-1.86-6.48Zm-1.31-3.45L487,94.85,476,120.4H497.7Z" fill="#ed1c24"/><path d="M525.91,145v-1.72h2.38q4,0,5.69-2.57,1-1.54,1-6.9V93q0-5.92-1.31-7.41a6.85,6.85,0,0,0-5.41-2.05h-2.38V81.79h25.74q14.17,0,21.55,3.22a25.65,25.65,0,0,1,11.89,10.72,33.09,33.09,0,0,1,4.5,17.34q0,13.19-8,22.05-9,9.88-27.41,9.88H525.91Zm18-4.57a47.6,47.6,0,0,0,9.93,1.3,23.58,23.58,0,0,0,18-7.6q7.13-7.6,7.13-20.61t-7.13-20.65q-7.13-7.55-18.32-7.55A39.67,39.67,0,0,0,544,86.69v53.75Z" fill="#ed1c24"/><path d="M636.91,123.84H612.44l-4.29,10a15.81,15.81,0,0,0-1.58,5.5,3.2,3.2,0,0,0,1.38,2.54q1.37,1.1,5.94,1.42V145H594v-1.72q4-.7,5.12-1.82,2.38-2.24,5.27-9.09l22.24-52h1.63l22,52.59q2.66,6.34,4.83,8.23a9.83,9.83,0,0,0,6,2.12V145H636.17v-1.72q3.77-.19,5.1-1.26a3.25,3.25,0,0,0,1.33-2.61q0-2.05-1.86-6.48Zm-1.31-3.45L624.88,94.85l-11,25.55h21.72Z" fill="#ed1c24"/><path d="M314.36,163.82l0.7,14.83h-1.77a17.87,17.87,0,0,0-1.4-5.59,9.37,9.37,0,0,0-3.85-4,13.45,13.45,0,0,0-6.32-1.28h-8.9v48.3q0,5.83,1.26,7.27,1.77,2,5.45,2h2.19V227H274.92v-1.73h2.24q4,0,5.69-2.42,1-1.49,1-6.81v-48.3h-7.6a21.24,21.24,0,0,0-6.29.65,8.63,8.63,0,0,0-4.15,3.4,13.79,13.79,0,0,0-2.05,6.81H262l0.75-14.83h51.61Z" fill="#ed1c24"/><path d="M346.9,225.31V227H319.81v-1.73H322q3.92,0,5.69-2.28,1.12-1.5,1.12-7.18V175q0-4.8-.61-6.34a4.2,4.2,0,0,0-1.91-2,8.79,8.79,0,0,0-4.29-1.12h-2.24v-1.73H346.9v1.73h-2.28q-3.87,0-5.64,2.29-1.17,1.49-1.17,7.18v40.84q0,4.8.61,6.34a4.18,4.18,0,0,0,2,2,8.59,8.59,0,0,0,4.24,1.12h2.28Z" fill="#ed1c24"/><path d="M388.29,227l-24.43-53.19v42.23q0,5.83,1.26,7.27,1.73,2,5.45,2h2.24V227h-22v-1.73h2.24q4,0,5.69-2.42,1-1.49,1-6.81V174.77a14.44,14.44,0,0,0-.93-6.06,5.18,5.18,0,0,0-2.4-2.26,12.88,12.88,0,0,0-5.62-.91v-1.73h17.9l22.94,49.47,22.56-49.47h17.9v1.73h-2.19q-4.06,0-5.74,2.42-1,1.5-1,6.81v41.31q0,5.83,1.31,7.27,1.73,2,5.46,2h2.19V227H405.27v-1.73h2.23c2.71,0,4.6-.81,5.69-2.42q1-1.49,1-6.81V173.84L389.83,227h-1.54Z" fill="#ed1c24"/><path d="M454.07,167.27v25H468q5.41,0,7.22-1.63,2.43-2.14,2.7-7.55h1.72v22h-1.72a23.74,23.74,0,0,0-1.31-5.92,5.82,5.82,0,0,0-2.75-2.56,14.05,14.05,0,0,0-5.87-.93H454.07V216.5a19.18,19.18,0,0,0,.37,5.1,2.9,2.9,0,0,0,1.3,1.44,7.92,7.92,0,0,0,3.55.54H470a29,29,0,0,0,7.79-.75,11.54,11.54,0,0,0,4.66-2.94,35.67,35.67,0,0,0,5.92-8.72h1.86L484.8,227H436.08v-1.73h2.24a8.83,8.83,0,0,0,4.24-1.07,3.89,3.89,0,0,0,2-2.24,21.85,21.85,0,0,0,.54-6.11V174.82c0-4-.4-6.48-1.21-7.41q-1.68-1.87-5.59-1.87h-2.24v-1.73H484.8l0.7,13.85h-1.82a21.72,21.72,0,0,0-2.16-6.85A7.48,7.48,0,0,0,478,168a21.18,21.18,0,0,0-6.58-.7H454.07Z" fill="#ed1c24"/><path d="M501.61,222a2.8,2.8,0,0,1,2.08.86,2.94,2.94,0,0,1-2.08,5A2.93,2.93,0,1,1,501.61,222Z" fill="#0092c8"/><path d="M530.59,217.93a13.08,13.08,0,0,1-3.82,7.35,9.22,9.22,0,0,1-6.31,2.57,9.32,9.32,0,0,1-7.18-3.46q-3.06-3.46-3.06-9.34a12.9,12.9,0,0,1,3.39-9.27,10.86,10.86,0,0,1,8.15-3.56,8.92,8.92,0,0,1,5.86,1.88q2.3,1.89,2.3,3.92a2.15,2.15,0,0,1-.64,1.63,2.52,2.52,0,0,1-1.81.62,2.82,2.82,0,0,1-2.35-1,4.16,4.16,0,0,1-.59-2.11,3.45,3.45,0,0,0-1.07-2.37,3.82,3.82,0,0,0-2.56-.79,5.23,5.23,0,0,0-4.25,2,10.39,10.39,0,0,0-2.14,6.84,13.87,13.87,0,0,0,2.12,7.64,6.53,6.53,0,0,0,5.75,3.31A6.93,6.93,0,0,0,527,222a11.89,11.89,0,0,0,2.82-4.4Z" fill="#0092c8"/><path d="M545.87,202.22a10.72,10.72,0,0,1,8.82,4.17,12.82,12.82,0,0,1,2.82,8.19,15.4,15.4,0,0,1-1.56,6.57,11.06,11.06,0,0,1-10.37,6.71,10.24,10.24,0,0,1-8.68-4.36,13.48,13.48,0,0,1-2.72-8.24,14.56,14.56,0,0,1,1.65-6.61,11.26,11.26,0,0,1,4.34-4.86A11.13,11.13,0,0,1,545.87,202.22Zm-0.81,1.71a5.52,5.52,0,0,0-2.81.83,5.84,5.84,0,0,0-2.29,2.92,14.1,14.1,0,0,0-.87,5.36,18.62,18.62,0,0,0,2.1,9.11q2.1,3.83,5.53,3.83a5.16,5.16,0,0,0,4.23-2.11q1.66-2.11,1.66-7.26,0-6.44-2.77-10.14A5.71,5.71,0,0,0,545.06,203.94Z" fill="#0092c8"/><path d="M568.26,207.37q2.63-2.64,3.11-3a9.45,9.45,0,0,1,2.56-1.56,7.21,7.21,0,0,1,2.72-.55,6,6,0,0,1,3.9,1.32,6.53,6.53,0,0,1,2.19,3.83,18,18,0,0,1,4.59-4.16,8.17,8.17,0,0,1,3.86-1,6,6,0,0,1,3.42,1,6.57,6.57,0,0,1,2.36,3.23,14.44,14.44,0,0,1,.58,4.8v10.4a9.43,9.43,0,0,0,.34,3.12,2.24,2.24,0,0,0,1,1,4.9,4.9,0,0,0,2.32.41v1H589.27v-1h0.5a4.18,4.18,0,0,0,2.43-.61,2.34,2.34,0,0,0,.87-1.35,17.28,17.28,0,0,0,.1-2.56v-10.4a8.77,8.77,0,0,0-.71-4.17,3.57,3.57,0,0,0-3.3-1.69,6.31,6.31,0,0,0-2.81.7,15.39,15.39,0,0,0-3.42,2.6l-0.05.29,0.05,1.13v11.54a9.87,9.87,0,0,0,.28,3.09,2.23,2.23,0,0,0,1,1,6,6,0,0,0,2.61.41v1H574.65v-1a5.6,5.6,0,0,0,2.76-.48,2.46,2.46,0,0,0,1-1.42,13.7,13.7,0,0,0,.13-2.61v-10.4a7.89,7.89,0,0,0-.87-4.25,3.72,3.72,0,0,0-3.25-1.69,5.8,5.8,0,0,0-2.82.77,10.69,10.69,0,0,0-3.38,2.61v13a9,9,0,0,0,.33,3.09,2.27,2.27,0,0,0,1,1.07,6.27,6.27,0,0,0,2.62.36v1h-12v-1a5.32,5.32,0,0,0,2.32-.36,2.29,2.29,0,0,0,1-1.14,8.67,8.67,0,0,0,.34-3v-9.24a34.08,34.08,0,0,0-.24-5.15,2.11,2.11,0,0,0-.58-1.2,1.65,1.65,0,0,0-1.08-.33,5.09,5.09,0,0,0-1.77.39l-0.4-.95,7.29-3h1.14v5.14Z" fill="#0092c8"/><path d="M281.59,64.83V66H263.89V64.83h1.46a4.41,4.41,0,0,0,3.72-1.49q0.73-1,.73-4.69V32a13.67,13.67,0,0,0-.4-4.14,2.75,2.75,0,0,0-1.25-1.31,5.77,5.77,0,0,0-2.8-.73h-1.46V24.64h17.71v1.13H280.1a4.38,4.38,0,0,0-3.69,1.49q-0.76,1-.76,4.69V58.65a13.65,13.65,0,0,0,.4,4.14,2.71,2.71,0,0,0,1.28,1.31,5.59,5.59,0,0,0,2.77.73h1.49Z" fill="#0092c8"/><path d="M293.17,28.88V38h6.52v2.13h-6.52v18.1q0,2.71.78,3.65a2.46,2.46,0,0,0,2,.95,3.51,3.51,0,0,0,2-.62,4,4,0,0,0,1.46-1.84h1.19a9.57,9.57,0,0,1-3,4.49,6.51,6.51,0,0,1-4,1.51,5.41,5.41,0,0,1-2.74-.78,4.67,4.67,0,0,1-2-2.22,11.65,11.65,0,0,1-.64-4.46V40.18h-4.42v-1a11.57,11.57,0,0,0,3.43-2.27,18,18,0,0,0,3.12-3.79,34,34,0,0,0,2-4.24h0.94Z" fill="#0092c8"/><path d="M320.45,37.23v9.51h-1q-1.16-4.48-3-6.1A6.68,6.68,0,0,0,311.85,39a5.1,5.1,0,0,0-3.44,1.13,3.27,3.27,0,0,0-1.31,2.5,4.54,4.54,0,0,0,1,2.93,10.85,10.85,0,0,0,3.84,2.65l4.45,2.16q6.19,3,6.19,8a7.51,7.51,0,0,1-2.88,6.14,10,10,0,0,1-6.44,2.33,22.2,22.2,0,0,1-5.85-.92,5.93,5.93,0,0,0-1.65-.3,1.22,1.22,0,0,0-1.1.79h-1v-10h1a11.35,11.35,0,0,0,3.26,6.43A7.88,7.88,0,0,0,313.28,65a4.83,4.83,0,0,0,3.43-1.23,3.92,3.92,0,0,0,1.33-3,4.73,4.73,0,0,0-1.48-3.53,25.89,25.89,0,0,0-5.9-3.63q-4.42-2.2-5.79-4a6.87,6.87,0,0,1-1.37-4.39,7.74,7.74,0,0,1,2.36-5.76A8.35,8.35,0,0,1,312,37.23a14.34,14.34,0,0,1,4,.7,9.32,9.32,0,0,0,2.07.46,1.22,1.22,0,0,0,.76-0.21,2.93,2.93,0,0,0,.64-0.94h1Z" fill="#0092c8"/></svg>