<svg xmlns="http://www.w3.org/2000/svg" viewBox="0 0 447.06 256.91"><title>icon-course</title><path d="M389.47,90.09c-15-8.52-33.55-12.93-55.25-13.1h-1.71c-34.71,0-73.09,8.7-111,25.17a10.28,10.28,0,0,1-4,.81c-2.78,0-4.65-1-5-2.8s0.93-3.36,3.89-4.64C257.24,77.78,298.29,68.4,335.08,68.4l3.18,0c35.47,0.52,65.52,11.87,82.61,31.16L434.16,94,223.51,5.42,12.9,94l210.61,88.5L407.88,105A73.47,73.47,0,0,0,389.47,90.09Z" fill="none" stroke="#0092c8" stroke-miterlimit="10" stroke-width="10"/><path d="M333.94,250.47V151.78L222.72,198.51l-111.78-47v99c30-7.47,68.65-12,111.59-12S304.94,243,333.94,250.47Z" fill="none" stroke="#0092c8" stroke-miterlimit="10" stroke-width="10"/><path d="M428.58,123.59a66.65,66.65,0,0,0-12.77-22.21l-9.12,3.83a66.51,66.51,0,0,1,14.93,31.53c3.5,20.74-5.5,41.34-13.33,60-3,7.26-6.14,14.61-8.74,22.09h9.1C419.46,187.31,440.17,157.26,428.58,123.59Z" fill="#0092c8"/></svg>