<svg xmlns="http://www.w3.org/2000/svg" viewBox="0 0 252.44 273"><title>icon-document</title><rect x="5" y="5" width="203" height="263" fill="none" stroke="#0092c8" stroke-miterlimit="10" stroke-width="10"/><line x1="39" y1="50" x2="175" y2="50" fill="none" stroke="#0092c8" stroke-miterlimit="10" stroke-width="10"/><line x1="39" y1="79" x2="175" y2="79" fill="none" stroke="#0092c8" stroke-miterlimit="10" stroke-width="10"/><line x1="39" y1="108" x2="175" y2="108" fill="none" stroke="#0092c8" stroke-miterlimit="10" stroke-width="10"/><line x1="39" y1="136" x2="175" y2="136" fill="none" stroke="#0092c8" stroke-miterlimit="10" stroke-width="10"/><line x1="39" y1="165" x2="114" y2="165" fill="none" stroke="#0092c8" stroke-miterlimit="10" stroke-width="10"/><path d="M118.8,202.49c11.92,11.45,18.62,26.48,26.54,40.71,3,5.3,16,1,18-3.42,18.55-40.14,48.9-75.11,85.62-99.72,3.05-2,5.24-5.92,1.46-8.41s-10.36-.69-13.74,1.58c-38.89,26.07-71.82,62.92-91.5,105.51l18-3.42c-7.92-14.23-14.62-29.26-26.54-40.71-3.31-3.18-9.07-2.35-12.91-.64-2.42,1.08-8.29,5.32-4.94,8.54h0Z" fill="#0092c8"/></svg>