<svg xmlns="http://www.w3.org/2000/svg" viewBox="0 0 271.74 271.74"><title>icon-maple-contur</title><path d="M135.87,4A131.87,131.87,0,1,0,267.74,135.87,131.87,131.87,0,0,0,135.87,4Zm62.94,167.73,8.5,10.46-42.22,8.09s-6.09.85-4.23,5.83c1,2.58,5.74,13.35,10.15,23.19l-3.44,1.29-3.45,1.29c-3.12-10.33-6.56-21.6-7.52-24.16-1.86-5-7-1.63-7-1.63l-37.2,21.54L112,204.14s-0.47-5.61-5.48-6.71L54.67,178.71s12.14-4.11,3.08-15L41.69,142.28,67,141.14A3.54,3.54,0,0,0,70.37,138c0.33-3,.46-16.55.46-16.55l33,15.68s4.18,1.75,1.42-5.1-27.9-47-27.9-47L93,88.71s5.5,2.51,6.94-3.62S103.37,49,103.37,49l0.27,0.27c2.44,2.43,21.46,21.21,26.24,24.67,5.11,3.69,7.62-1.8,7.62-1.8l9.44-13.06s7.31,46.83,9.7,53.81,4.41,2.92,4.41,2.92l14.67-33.47s9,10.14,11.19,12.2a3.55,3.55,0,0,0,4.62.14L211.37,79l1.87,26.66c0.32,14.2,12.2,9.34,12.2,9.34l-26.88,48.08C195.5,167.2,198.81,171.73,198.81,171.73Z" fill="none" stroke="#fff" stroke-miterlimit="10" stroke-width="8"/></svg>