<svg xmlns="http://www.w3.org/2000/svg" viewBox="0 0 718.33 929.38"><path d="M362.33,305.89s1.33-.17,0-1.5-3.67-1.67-3-2.83,0.64-2.17,1.74-2.83-0.57-1.67.76-2.17,1.83,0.83,3,0,1.67-.67,2.83-0.83,1.33-1.17,2.83,0,2.33,2.17,3.5,2.67,2-.06,3.17,2.14,2.33,3.86,3.5,1.7,0.67-2.83,1.33-3,0.67-.22,1.5,1.3,3.5,5.2,3.83,6.53,0.67,3.33,0,4.5a13.26,13.26,0,0,0-1.83,4.17c-0.17,1.33-2,1.17-.17,1.33s1.6,0.5,2.38-1-2.22-2.67,2.28-2.67,4.33,1.5,5.83-.17,0.33-.67,1.5-1.67,2.5-2.67,4-2.33,1.33,1,2.33,1.5,4,1,4.5,2.5a31.12,31.12,0,0,1,.83,3.17c0.17,0.67,1.5,2,0,2s-1.33-.17-3-0.83-2.17-1.67-2.67-.5-4.5-.17-1.67,1.33,4.17,1.5,6.83,2.67,5.33,2.5,7.33,2.67,2.83-1.67,3.83,0,0.17,2.83-.83,4.17-1.83,2.5-3,2.5-3,1-3.67,0-0.67-1.83-2.83-1.33-1.17,1.67-3,.5-3-2-3.5-2.83-1.33-1.83-1.5-.83-2.17,1.33-.17,2.67,3.83,1.67,5.33,3,1.17,3.17,2.83,3.17-0.67,0-2.17.83-2.33.67-2.5,1.83-3.17,3.51-.83,3.25,2-.25,3.33-1.59,1-1.5,2.17-1.67,2.33,0.17,3.33-.17,0.67-1.83,1-.33-1.33,1.5,0,2.5,2.17,0,4,1.27,2.17,0.73,1.67,2.06-0.33,2.33-.83,3-1.17.17-1.83,1.17-1.17,1.83-.33,1.83,1.5-1.17,2.67,0,0.74,1.17,1.12,2,0.88,4,1.72,3.17,0.83-2.17.83-4.17-1.33-2.5,0-3.33,2.83-1,2.83-.17-0.5,3.33,0,4.17,2.83,0.5,3.67-.67,1.17-1.67,2.17-.67,1.5,2.83,2,2.33,0.17-3.17,1-3.5,1.83,2.67,1.83,2.67l2.67,1.17s-0.33,3.5,1.33,3.33a27.55,27.55,0,0,0,3.5-.83c1-.17,2.67-0.33,3.5-0.5s3.5-.17,1.83-0.83-4.17-1.17-3.33-2.33a7.92,7.92,0,0,1,2.5-2,17.29,17.29,0,0,1,2.67.17,1.87,1.87,0,0,0,2.5-1.67c0.33-2,1.17-2.33,1.83-2.17a4.86,4.86,0,0,0,3.33-1.5,4.13,4.13,0,0,1,2.67-1.67c1.5-.33,1.83-0.32,2.17-1.08s-1.67-1.09,0-1.42,3-.67,3.5.33,0.67,2.17,1.83,2,2.5-1.83,3-2.17a12.78,12.78,0,0,1,2.67-.83,6.25,6.25,0,0,1,3.5,0c1.17,0.33,1.83,1,3.33.83s1.67-.33,2.5.17a7.33,7.33,0,0,1,1,2c0,0.5-.17,2.33,1,2.33a18.75,18.75,0,0,1,3,.5,3.31,3.31,0,0,1,2.67,2.17,3.18,3.18,0,0,1,0,2.17c-0.33.67,1.5,1.17,2.5,1s1.17-1,2.17.17,1.67,5.67,1,7.33-1.33,3.67-2,4.17-2.17,1-3,2-2.33,3.83-1.83,4.5,1.5,2.5,2.17,3.67a4.86,4.86,0,0,1,.83,2.33c0.33,1.5,1.17.83-.33,2.5s-0.83,3.67-3.17,3.33a8.89,8.89,0,0,0-4.17,0c-1.33.3-1.67-.37-2.67,0.8s-1.17,2-2.67,1.83-2.67,1.88-3.5,0-1-2.69-1.83-2.52,0.17-.83-0.83.17-1.83,2-2.17.17-3.17-3.33-2-4.33,1.83-1.17,2-2.17-1.83-2.83-1.83-2.83-0.5.83-1.67,0a9.78,9.78,0,0,1-2-2s-1-.83.17,2.17,1.83,2.83,1.33,4.17,0.67-.5-0.5,1.33,0.33,1.83-1.17,2.5a13.38,13.38,0,0,1-3.67.83,3.43,3.43,0,0,0-2.67.17c-1.67.67-2.33,2-3.67,0.5s-1.33,1-1.33-1.5-0.33-4.5-.17-3.5-1.17.83-1.67,1.83-1.17,1-1.83,1.83-1.67,3.5-2.5,1.83-1-4.33-1.83-2.33-0.83,2.33-1.83,3.17a1.48,1.48,0,0,1-2.33-.17c-0.67-.67-0.33-2.17-1.83-1.33a13.13,13.13,0,0,1-3.17,1.5c-1.17.33,2.17,1.33-2.5,0.5s-4.68,0-6.92-.33-2.41,2.83-2.24-.33-0.33-4-.17-5.33,0.67-1.83-.33-2.83-1.5-1.67-2.17-1,1.67,1.67-.83,1.5-2.5-2.83-3.67-1-0.33,3-.33,3,1.67,0,1.33,1,1.17,1.33-.5,2-2.67,1.83-4.17,1.33-5.83-1.5-6-2.33-0.83-1.17-1-2,0.17-2.33-1-1.33-0.5,3.33-1.17,1-0.33-3.5-1-3.33-0.67.5-1.5,1.17,0.83,2-.33,3-2,1.5-2.83,1-0.83-.17-1-1.5-0.67-1.5-1.83-2-1.83,1.33-1.83-1.67-0.67-3.17,1-5.17,1.83-4.5.67-5-3.17-.5-3.33-1.33-1.17-1.17-.67-3,1.17-3,1.33-4,0-1.83.67-2.83a3,3,0,0,0,.67-2.67c-0.17-1.33,1-3.33-.17-5.83s-2-2.67-2.17-4.33-3.33-3.5-2.83-4.5-2.83-6.67-2.33-8.83-0.33-2.83-1-3.17-1.5-1-2,.17-1.33,1.33-2,2a1.41,1.41,0,0,0,0,1.67c-0.83,1-2.17,0-3.67-.67s-2.83-1.33-3.5-1-1.67,2.33-2.5.67-0.33-1.17-.83-2.5a2.81,2.81,0,0,0-2.67-2.17c-1.33,0-2,.33-2.67-0.5s-0.5-.5-1-2.67,0.67-.67-0.5-2.17,2-.17-2.5-2.83-3.57-2.67-4.45-4-3.72-3.5-1.72-3.17A36.28,36.28,0,0,1,362.33,305.89Z" fill="#000000"/><path d="M377.17,334.06s-2.33.83-2.33,1.33a9.36,9.36,0,0,0,1.17,2.17c0.33,0.67-.5.41,0,1.62s0.83,2.38,2,2.21,2,1.2,2,0-1.17-2.68-1.17-3.43a3.14,3.14,0,0,1,.17-2.08c0.5-1.17.5-.67-0.67-1.83S377.17,334.06,377.17,334.06Z" fill="#000000"/><path d="M370.33,344.89s-2,2.33-2.83,3.17a10.35,10.35,0,0,0-1.33,2c-0.5.67-1.17,1.17,0,1.5s2-.17,1.76,1,1.07,0.17-.26,1.17a10.06,10.06,0,0,1-3,1.5c-1.17.5-2.33,0-2.33,1.83a38.58,38.58,0,0,0,0,4.5c0.17,3.17-.17,5,1.5,4.67s1.59-1.83,2.46-1.33a2.44,2.44,0,0,1,1.2,2.5c0,1.33.33,3.5,1.67,3.33s2-1.65,2.33,0,0.83,1.16,2,3.16,0.83,3.33,3.92,3.17,5.92,0,7.42,0,1.83,0.49,1.5-1.68-1.5-4.17-1.67-7-0.17-3.5.83-4.83,1.74-1.83,1-3.5-1.29-3.67-2-4.33,0-.67-1-1.67-1.33,2.5-3.5-2.33-1.17-6.5-4-6.83A27.66,27.66,0,0,0,370.33,344.89Z" fill="#000000"/><path d="M332,310.39a12.59,12.59,0,0,1,4,1c2.17,0.83,2.83,1.17,3,2.17s-0.33,1.5,1.17,2,2,3.33,2,0,0.5-3.17,1.5-3.17,1.83,0.33,1.67-.67-2.17-1.17-.17-1,2.5-.17,2.5,1.33,2.33,3,2.83,3.83,0,1.67,0,3.5a7.94,7.94,0,0,0,1,4.33c0.67,1-.67,5.33,0,6.17s-0.28,4.67.19,5.17a1.94,1.94,0,0,1,.05,2.66c-0.91.84-2.58,0.09-1.41,1.46s3-.12,3,1.88,0.83,1.83,0,2.83-0.5,1.67-1.33,3.33-0.33,2.33-.83,1.67-2.17.67-2.33,1.33,1.17,2.17,1.17,2.83-3.67-.67-1.5,1.33a31.74,31.74,0,0,1,2.83,2.83,1.34,1.34,0,0,1,.17,1.5c-0.5.67-1.5,2-1.83,1.5s-0.83-1.33-.83-1.33-1.33-2-1.17-.17-1.5,5.33-1.5,5.33c-1.33.17-2.46-.17-3.31,0s-1.35,1.76-2,0-0.83-2.38-1.67-2.38-2.17.33-2.5,1.17,0.5-.33-0.33.83-1,1.5-2,1.17-1.17.58-2.33,0.12-2.17,2-3.17-2.12-1.33-4.83,0-5a20.83,20.83,0,0,1,2.33-.17s0.83-.67-0.17-1-0.83,0-1.67-1.33-1.83.17-.83-1.33,2.83-.83,2.33-2.17l-0.5-1.33h0c1.5-.5,2,0.33,2.83-1s1.5,0.33.83-1.33-1.83-2-.67-2.5,2.17,0,2.17-1-2,0,0-1,3.17-1.49,4-1.83,3-.84,1.33-1a12.26,12.26,0,0,0-5,.33c-1.33.5-2.5,1.5-4,1.83s-4,1.7-5.17,1.69a11.15,11.15,0,0,0-3.33,0c-1,.31.33,0-2.5,1s-3.83,1.17-4.5,1.17-2.83,1.5-3.67.83a3.73,3.73,0,0,1-1-2.17s-0.83,1,0-.81,1.67-2.85,3-2.85,1.17,1,1.33,0-1.5-3.38-.83-4,1.33-1.48,2.67-1.15,0.83,0.29,2,1.15,2.17,1.43,2.67,1.31,0-.47-0.5-1.46-1.33-.83-1.5-1.49-1.17,1.33-.17-0.67,0.83-2.83.83-2.83a4.17,4.17,0,0,1-3-1.83c-1-1.67-1.5-2.33-1.17-3.83s-1-2-1.67-2.5-1.67-1-.67-1.83a7.55,7.55,0,0,0,2.67-3.17c1-2,1.83-2.67,2.33-2.5s0.83,0,2,1.5,2.67,3,2.83,4.5,2.83,4,3.67,5.17,0.83,3,1.5,4,3.33,2.83,4,2.67,2.5-.33,1.17-2.17-3.83-3.5-3.33-5,1.67-1.5,1-2.17-0.67-1-1.5-1.17-2.5-.67-1-1.83,1.67-1.5.33-2.33-3.33-.67-3.5-1.5-2.83-1.5-1.83-3,2.33-1.5,2.83-2.83S332,310.39,332,310.39Z" fill="#000000"/><path d="M324.67,307.89c-0.5-.17-1.67,2-2.5,2.5s-2.5,1-1.83,1.33,0.5,0.83,2.83,0a13,13,0,0,0,3-1.33,3.1,3.1,0,0,0,2-2.51C328.17,307.39,324.67,307.89,324.67,307.89Z" fill="#000000"/><path d="M298.33,310.39c-0.5.33-2.33,2.17-2.17,3.33s1.83,2.17,2.17,2.33-0.33,1.5,0,2.33-1.81,1.5.1,2.17,1.9,1.17,4.4.83,3.5,1.55,4,.11l0.5-1.44h0a4.9,4.9,0,0,0-1.83-3.84c-0.5-.33-2.83,0-2.67-1.5s-0.5-.92.17-2.54S298.33,310.39,298.33,310.39Z" fill="#000000"/><path d="M298.67,325.72s-0.83,3.17,0,3.5,1.17,1.17,2.17,1.17,1.5,0.5,3.17,0,1.86-1,3.35-1.33,2.15,0.56,3.15-.89,1.26-3.28.8-3.94-1.8.33-3,0-2-1.3-3.43-.23a6.24,6.24,0,0,1-3.91,1.07A8.1,8.1,0,0,0,298.67,325.72Z" fill="#000000"/><path d="M304.91,333.54s-2.74,2.85-1.07,2.35,3.5-.13,4.17-1.15,2.26-1.35,3.3-2.35,2.87-1.22,2.2-1.78-4.23.11-5,.78A35.66,35.66,0,0,1,304.91,333.54Z" fill="#000000"/><path d="M296.16,352.06c-0.49.83-1.82,2.67-1.82,3.5s1.33,2.33,0,3.5-0.84.57,0.91,1.87,1.68,2,3.05,2.8,3,0.5,3.45-1.17-0.42-3.56,0-4.45,1.42-1.39,0-2.89,0.08,0-1.42-1.5A7.4,7.4,0,0,0,296.16,352.06Z" fill="#000000"/><path d="M285.67,275.22c1.17,2.17,1.67,2.83,1.17,4.17a3.64,3.64,0,0,0,1.17,4.17c1.33,0.83,1.67,2.33,2,3.67a6.39,6.39,0,0,0,1.33,2.83c0.5,0.5,1.67,2.5,2.67,2.5s4.59,1.17,4.3,0-2.48-2.5-2.14-4.17a9.07,9.07,0,0,0,0-4.24c-0.32-1.26-1.66-.93-2.32-1.59s-1-.83-0.83-1.67-0.85-2.83-1-3.83a6,6,0,0,0-1.82-3c-0.67-.5-1.33.17-2-1.5s-2.33-3.67-2.5-2.83S285.67,275.22,285.67,275.22Z" fill="#000000"/><path d="M311.52,265.39s1.1,2.17,2.12,2.5,1.86,1.83,3.19,2.5,1.86,1,3.35,0,1.15-.39,2.32-0.86,2.33,1.47,2.83,0,2-1.47,0-2.3-3-.67-3.67-1.83-1.47-2-1.49-2.67-1.51.33-2.35,0-0.67-.64-2.17-0.23-2.67.74-3,1.4A7.76,7.76,0,0,1,311.52,265.39Z" fill="#000000"/><path d="M332.5,268.06c0.33-.17,1.83.5,3.17,0a10.91,10.91,0,0,0,3.17-1.4c0.67-.6.83-0.1,1.17-2.27s-0.17-3.33,0-4.17,1.67-3.17,1.17-4.33-4.4-4.83-4.28-7.33-0.72-4.33-1.38-4.17a1.08,1.08,0,0,1-1.17-1.5c0.33-1,.17-2.17.83-3a5.07,5.07,0,0,0,.67-4.33c-0.5-1.83-4.83-2.67-4.83-3.67s0.67-4.17,0-5.67a6.13,6.13,0,0,0-2.5-2.83c-0.67-.33-0.65.33-2.16,0a3.77,3.77,0,0,0-3.51,1.33c-0.83.83-1.17,2.17-1.5,1.67a18.73,18.73,0,0,0-2.4-2,1.19,1.19,0,0,0,1.24-1.1c0.33-1.24-.33-0.74,1.17-2.57s0.83-1.83-.17-3.5-0.31-2.33-2.24-2.17-1.6,1.28-2.93,0-1.17-1.64-2.17-3.14-1.63-2.67-2.32-1.83-1.85,1.83-1.85,3.17-1.5,1.5-1.17,3.83,1.9,8.17,0,4.33-6.12,1.33-3.79-4.5,1.17-7.33.83-8-0.55-1.83-1.52-1.83-2.31,1.83-4.64,0-3.33.33-4.33,0a5.47,5.47,0,0,0-3.83.5,14,14,0,0,1-3.83.83s-1.67-.5-0.67,1.83,2.33,4.83,2,6.17-3.17,2-.33,3.5,3.5,0.33,4.5,0,3.5-4.33,2.33-.5-1.5,4.67-1.5,5.83-1.83,4.17.5,2.83,4.46-2.67,4.15-4,0-1.83.69-1.83,3,3.83,2,5-2.83,2.67-1.5,3a10.76,10.76,0,0,0,4,0c1.33-.17,2.33,0,1.83.83s-0.17,1.33-1.67,2.33-3.17-.5-1.5,1,2.33-.5,2.67,1.67,0.67,3.67-.33,4.17a3.87,3.87,0,0,1-3.17.33c-1.67-.33-0.87-0.83-3-1.5s-3.15-1.67-3.81-1-1.83-1.83-.17,2.67,0.5,8.5,2.83,9.17,3.67,1.33,5.33.83,1.17-2,2.83-2.67,2.5-1.67,3.67-1.5,1.2,1.5,2.52,2.5,4.65,0.33,5.65,0,2.33,2,3.5,3.17,0.67,2.5,2.5,1.67,1.67-2.67,1.83-.83,1.5,7.65,2.67,9.24,1,4.13,2,4.36A13.42,13.42,0,0,1,332.5,268.06Z" fill="#000000"/><path d="M348.5,225.39s-2.5,2.17-1.17,4.67,1.17,2.5,1.17,4.5-1.88.11-.78,2.72,1.94,1.44,1.94,4.28a15,15,0,0,0,.67,5.17c0.5,2,.33-0.17.5,2s0.67,2.83,2.17,3,2.43-.17,3.8,0,3,0.17,3.2,1.67,0.83,2-.83,2.33-2.17-.17-4.17,0-3-2.5-2,.17,3.1,4,3.8,5.17-0.37,4.54,0,5.6,0.2,2.51,1.7,2.87,2.17,0.74,2.67-1.28,0.5-3.86,1.67-3.19a20.73,20.73,0,0,1,2.17,1.6c0.83,0.56,2.17.06,3.67-.94s4.17-.83,5.67-2.5,2.17-4,1.17-5.33-3.33-.33-2.17-2.67,0.33-3.67,1.17-5.17,1.12-1.57,1.48-2.45,0.48-1,0-2.55-1.48-2.17-2.31-4.17a4.42,4.42,0,0,0-3.83-2.67c-1,0-2.67.67-3.33,0a3.07,3.07,0,0,1-.83-3.33c0.5-1.67-1-3.83-1.67-4.17s-5.73-4.33-7.2-5.33S348.5,225.39,348.5,225.39Z" fill="#000000"/><path d="M369.17,269.53c-0.83,0-.5,0-2,1.49s-3.83.37-2.67,2.7,0.18,2.17,2.18,4.83,1.16,1.16,3.82,2.74,1.83,1.25,4.33,1.92,7.33-1.5,8.67,0,2.83,2.67,3,1-0.17-4.33,0-5,1-1,1.83-1.94a3.1,3.1,0,0,0,0-4.06c-1.17-1.5-3.33-3.07-4.67-2.2s-3.5.46-4.83,0-2-1-3.17-1.49a4.34,4.34,0,0,0-2.83.29s-1.33,1.09-2.17,0S369.17,269.53,369.17,269.53Z" fill="#000000"/><path d="M405.5,275.06c-0.83.67-1.5,1.83-1,4.17s1.5,3.13,1.67,5.82,0.5,2.85,2.33,4a11.67,11.67,0,0,1,1.83,1.17c0.83,0.67.33,1.83,1.83,1.83s1.17-1.33,2.67-2.67,2.5-1.17,2.33-3.17-2-3.68-2.33-4.92a24.37,24.37,0,0,0-2-4.16C412.33,276.22,405.5,275.06,405.5,275.06Z" fill="#000000"/><path d="M427,271c0.1,0.5-.53,3.7,1.47,5.37s2,1.33,2.83,3.5-0.33.83,0.67,3.67,0.67,3.67,2.17,3.83,2.5-2,3.33-1,1,0.83,0,2.5-2.5,1-1,1.67,3.5,1.54,2.67,2.52-0.67,3.53-2.5,2.09-2-2.44-2.5-.78-1,3.17-2,2.83-1.33-1-2.33-1.33-2.6-.5-2.8,0-1.2,2.33-1.53,3-0.5.33-2.17,1.33a14.23,14.23,0,0,0-4.67,6.5c-0.5,2,.33,3.5,0,6.17s-1.16,3-.16,4,0.16,2.33,2.16,1.67,1.5-1.67,2.17-3.33-0.83-4.67,1-4.83,2.83-.42,2.33,1.79-0.67,2.53-.5,4-0.77,1.86,1.37,2.52,3.13,2.15,4,2.49,1.5-2.5,1.5-2.5l0.5-1.33s0-2.33.67-.5S438,322,438,322c1.17-1.66-.11-4.49,1.36-5.16s1.3-2.67,1.8-2.5-0.5,1.83,0,4S440.67,320,443,322s2.5,2.51,4.5,3.34,0.5,1.5,3.83,1.67,5.33-1.28,3.83-3.56-2.83-4.28-2.5-5.61-0.83-1.34,1-1.67,2.17,2.84,3,3.34,2.67-.83,2.83-2.5,1.17-3,1.67-2.67,1,2.33,1.67,3.5,3.5,2.33,3.67,1.17,0.67-1.34.83-2.84-0.33-4.16,1-2.83,1.67,3.83,2,4.67-0.33,2.67,1.17,3.17,3.5,1,4-1,0-4.83.83-5.33,2.17,1.17,3.5,2.5,0.33,2.67,2.5,2.33,1.83-1,3.17-.17,3.5,2.55,2,3.94-1.67.72-2,2.39,0,2.83,1,3,4-2,6.67-3,2-1.11,4.1-2.39,1.73-2.11,3.9-4.11,2.67-4.18,3-3.17-3.83,3.34,0,2.34,4-.68,4.83-2.34,0.33-2.5,1.5-2.66,2-2.33,1.67-4.67a28.88,28.88,0,0,1,.07-6.17c0.09-1.5-5.24-2.67-5.74-1.83s-1.67,4.33-2.5,2.67-2.33-3.36-3.17-3.6,0.83-1.07,1.67-1.74,1.83-4.8,1-5.15-2.83-2.35-4.17-2-3.33,3.05-4.33,4.11-3,4.72-2.67,1.06,0.33-4-.5-4.17-2.67.33-3.33,0a3.51,3.51,0,0,0-3.17,0c-1,.67-3,1.88-3.67,3.11s-2,2.61-2.17,0-2.17-3.28-.67-4.44,1.17-.5,3.17-1,1.67,1.17,2-.5-1.5-2.17-1.5-3-0.67-2.5,0-3.5,1.33-1,2.67.83,1.5,3.83,2.83,4.33,9,2.17,11.17,1.33,1.67,0,4.83-1.17,1.67-.83,4-1.33,1.83-2,2.17-4.33-1.33-2.17,1-3.17,3-.83,3-2.08-1.5-1.42-2.17-2.08-2-3.57-1-4-0.67-3.3-1.17-3.46-0.5-1.83-.33-2.67-0.5-2,1-1.67,0.83,0.5,3.67,1.67,3.67,2.5,5.17,1.33,1.67-2.62,2.5-3.06,2.17-1.77,3.83-1.11,6-2.83,5.33-3.83-2.5-.5-4.17-1-3.83-.5-4.5-1.33-1.83-1.33-.83-2.17,2,0.5,3.83,0,3-.06,4.67-0.28,1.17-1.39,2.67-2.72,2.17-.17,2.5-1.5-0.67-.68-1.67-1.84-2-3.49-3.5-3.49-3,.5-3.83-1l-0.83-1.5s4.17-1.17,6.33-1.5,2-.67,3.57-1.67,0.6-.17,1.77-2.33,1.67-1.83,1.17-4.83,1.33-4.33-1.83-4.83-5.5-2.39-7.17-1.28-4.5,1.22-2.67,0,3.5-2.22,2.17-2.72-3.5-1.5-4.67-1a8.17,8.17,0,0,1-3.83.83c-1.83,0-2.5-.5-3.17.5s-1.67,2.39-1.67,2.39a1.22,1.22,0,0,1-1.83-1.22c0-2,2-3.5.17-4.33s-3.83-.83-2.17-1.67,5,0.33,6.67,0,4.17,0.72,4.17-.31a3,3,0,0,0-2.83-2.53c-1.67-.17-4.33,1.5-5,0s-1.67-1.67,2-2.33,4.17-.33,5.67,0,2.83-.33,4.83.83,1.83,0.67,2.67,2.33-0.5,3.5,2.5,4.5,6.5,0.67,7.17-1.17-1.67-4.17-1.17-5.67,2.17-3,.5-3.33-4,0-6.17,0-3.5-.67-5.17-1-2,.33-4.17,0-2.83.47-6-.1-6.17-1.89-3.33-2.65,3.67,2.75,5,0-0.33-3.09,1.33-2.75,0.67,1.67,3,2,3.5,2.34,4.5.75,1.17-3.09-.17-3.75a11.85,11.85,0,0,0-3.67-1.17c-1.67-.33-5.17,1-5.17-0.83s1-2.33,2.83-2.17,1.67-.83,5.17,1,2,2.67,3.83,3.83,1.5,1.67,3.17,1.67,1.33,0.33,2.67-1.33,2.17-2.17,4.17-2,1.33,0.17,3.67-1.17,3.33-7.83,2-9.83-3-1.83-4.33-2.33-3.33-1.5-3.17-2.17,1.17-1.5,2.83-1.5-0.5-3.33,3,0l3.5,3.33s0.83,4,3.83,4.17,5.5,0.5,8-.5,6.17-.5,6-3-0.67-4.33-1.33-4.67-2.5-.13-2.17-0.81,6.67-6.19,8.83-8.19,2.83-2.33,2.17-3.33,1.67-2.33-1.83-1.83a22.73,22.73,0,0,0-6.17,1.67c-1.33.5-3.83,1.33-4.33,1s-2.17-.33-1.33-1.33-0.17-2,1.67-2.33a7.35,7.35,0,0,1,3.83,0c1.17,0.33,1.67,1,4.17-.25s2.16-1.58,4.25-1.75,1.92,1.5,2.92,0,1.5-2.5,0-4a11.11,11.11,0,0,1-2.5-3.17c-0.5-1-1.17-2-.5-3s0.5-1.83-.67-3.67-2-4.83-1.17-5.33,1.67-4.5,2.33,0,0.67,3.83.83,5.5,0.17,5.33.17,5.33,2.33,1,3.83.33a4,4,0,0,0,2.83-2.83c0.83-2,.33-2.83,1.67-4.67s9.17-15.5,11.83-17.5,3.33-3,6.33-6.17,2.67-2.67,3.5-5.5-0.5-3.83,2.33-5.67,4-3.17,6-4.17,5.83-5.67,6.67-6.83,2.17-8.5,0-8.5-6.17,1.33-9.17,2.83-6.33,3.83-9.17,5a59.11,59.11,0,0,0-10.17,5.33c-2.5,1.83-8,5.67-9,6.83a6.49,6.49,0,0,1-4.33,1.83c-0.83-.17-2.83-0.5-0.5-2.17s8-6,10.33-7.17,4.5-3.33,6.83-5A75.12,75.12,0,0,0,601,99.06c1.5-1.33,0-2.17-3.17-2.17s-5.33-.5-6.33,0-1.17,2.17-2.17-1.67-1.17-4-2.33-4.83a5.77,5.77,0,0,1-2.33-2.67c-0.33-1,5.67,3,6.17,4.33s1.17,3.5,2.67,2.83,4.17-.5,5.33-1,2.17-.67,5.17-0.5,5.83,0.83,6.83.33,7.5-1.67,3.33-3.5-5-2.67-2.17-3.33,4.33,0.67,5.33,0,0.83,1.17,2.67,1.17,11.83-8.5,13.67-10.67,12.33-22,13.67-23.33,1.5-10-3.33-13-9.33-2.5-9.67-4.67-4.83-11-4.17-12.67-3.83-5.5-5.5-5.83-4.83-3.67-6.5-3.5-1.83,2.67-5.33,4-4.5.17-7.67,4.67-5,7.67-9,8.33-9,3-7.67.33,6.83-5.33,6.83-5.33a17.35,17.35,0,0,0,3-.83c1.17-.5,3.83-4.17,6-6.33s5-5.17,2-6-5.17.33-6.33,0,0.5-1-5-2.67-6.17-2.83-8.33-1.67-5.17,1.06-5.33-.47S580.67,3.06,578,2.06a8.7,8.7,0,0,0-4.33-.83c-1.17,0-1.5-2.52-3.5,0s-4.17,3.18-3.5,6,3.67,8.17,3.83,9.5-1.83-.67-2.5-1.33a15.6,15.6,0,0,1-2.83-5.33c-0.5-2-2-4.17-.67-6.17s2.33-4.41,0-3.79-3-.71-6.17,1.46-5.83,3.67-7.5,6.83-4.5,7.5-.17,11,6.67,4.33,7.17,6.17S557,29.39,556,28.72s-2.33.33-3.67-2.33-6.17-7.5-6.5-9.5-0.5-5.67-1.17-6.67-4.17-2-5.83-2.83-17.5,1.17-18,1.17-2.5-.67-1.83,2.33-1.33,6.83,2.83,9.83,6,5,7,7.33a18.64,18.64,0,0,0,2.83,4.33c0.33,0.5.83,0.5,0,2.17s-1.67,5.5-4.33,8-1.83-1.83-1.67-5.33,0.5-4.83-.5-5.83,0,0.67-2.17-1.5-2-2.83-3.83-6.33S517,17.39,516,16.72s-3-2.17-3-2.17-1-.33-1.67,1.83-2.5,3.33-3,.5-1.33-4.33-2.67-5-6.83-1.67-8-1.33-4,1.67-4.17,3-2.67-.5-1.17,2.67-0.17,2.67,2.67,6.33,7.5,6.5,8.83,6.5a19.89,19.89,0,0,1,2.5.17s3.33,1.83-1.17,1.33-4.67.33-8.17-2.5-3.83-3-4.83-4.17-1.5-2.33-4-2.33-6.17.33-3.83,2.33,2.83,3.83,3.83,6.67,3.17,6.17,3.33,7.17-1.67,1.33-2.5,1.17,1.17,4-2.67-1.33-4.17-6-5.17-6.33-4.33-7.83-3-.67,2,8.17,3.33,9.33-0.17.17,1.33,1.17,1.83,2.17-1,1.5S479,41.72,477,42.39s-2.83.17-2.67,1.5,0,6.5,2.83,9,2,3.67,5,5.67,2.17,4.67,4.67,5.83,4.33,3.5,6.33,4.5,4.33,2.5,4.33,2.5c1.5,2.83.83,2,1.83,4.5s1.17,4.83.67,4.83,1,2-1.5-.67-4.17-5.67-6.5-7-1.5-.17-6.83-4.33-8.67-6.5-9-7.33-0.5-.83-1.17-2.5a12.64,12.64,0,0,0-2.17-4c-0.83-.83-1.83,1-5.83-2.33s-3.33-5.5-5.67-7.33-3.17-3.5-4.67-3.67-2.67-.5-4.17,0-3.83-.33-3.5,1.67,0.83,1.33,2.83,4.67,5.33,8.33.83,8.83-2.17.33-6.83,0.67-6-.17-5.67.67l0.33,0.83c0.33,0.83-2.67,1.33,1.67,3.83s4,2.67,8,4.33,6.17,1.33,6.67,3,1.83,2,2,4.5-1.17,3-1.67,2.67a7.43,7.43,0,0,1-2.5-3.17c-0.5-1.5,0-1.67-5.33-2.83s-8.33-3-11.33-4-6.17-1.67-7.83-1.33-4.67,1-5.5,3-0.67,1.83-2,2.83a11.67,11.67,0,0,0-2.33,2.5c1,1.67,4.33,3,2.83,4.33s1.17,4.17-2.17,3.17-6.17-2.83-6.17-3.67,1.83-3.83,0-2.17-9.17,2.5-10.17,4.67-2.17,6.83-2.5,7.67-4.67,3.5-2,5.17,3,3.33,4.83,1.83,2.83-3.67,3.83-4.67,2.83-3.33,3.67-2.5,2,1,1.33,3-0.67,4.5-3.33,6.33-4.17,4.33-2.17,5.33,0.83,3.83,3.83,1.83,7-5.33,8.5-6.33,4.67-3.33,6.67-3.5,5.33,0,6.17,1.67,2.33,3-.83,2.33-4.83-1.5-7.33-.33a13.83,13.83,0,0,0-4.33,2.83c-1.33,1.17-2,4.33-3.5,5.67s-6.67.83-3,2.33,3.83,1.33,5.67,2.33,2.33-.17,1.83,1-0.33,2.33-2,2a15.07,15.07,0,0,1-4.17-1.67c-0.5-.33-1.33.33-1.83,0.67s-5.67,7.33-.83,9.33a17.31,17.31,0,0,0,11.33.83,37.52,37.52,0,0,1,7-1.17c1.17,0,.17,1.17,4,0.33s5.5,0.33,7.33-3a29.31,29.31,0,0,1,3.5-5c0.67-1,1-1.33,3.83-3s5.17-4.33,5.33-2.17a5.41,5.41,0,0,1-1.67,4.67,40.37,40.37,0,0,1-5.17,4c-2.17,1.5-4.33,4-7.17,5.33a67.56,67.56,0,0,1-7.17,2.67s2.67,0.5-1.17.33-6.33-.17-7.33.17,0.5-1-2,1.17-4.83,3.67-3.5,5.33-0.33-1.33,4.67,3.5,4.83,5.17,5.67,5.67a8.15,8.15,0,0,0,2.5,1.5c1.5,0.5-1,1.67,1.5.5s6.5-10.5,6.5-10.5,4-4.5,4.33-5.5a4.64,4.64,0,0,1,3-3.17c1.83-.5,7-2.33,7-2.33s7.83-2,8.67-2.33a14.67,14.67,0,0,1,4.83-1c1.17,0.17-4.17,2.67-5,3s-4.5,1.33-6.83,2.33-1.83,1-4.83,3-2.67-1.33-4.5,5-6.67,10.67-4.5,12.5,5,4.67,5,4.67,4,2.33,4.67,2-0.67.17,1.67-.83,5-1.17,6.17-2.67,5.67-6,6-8.33-2.5-5.5,1-4.67,1,2.17,3.67,3,1.83,3.17,4.17,1,3.83-4.17,4.5-3.5,3.5-1.67,1.33,1.67a21.35,21.35,0,0,1-4.67,5.17c-2.17.33-2.83-1.5-4.67,0s-3.33.33-2.33,2.67-0.17,3.17,4,3.33,5.83-1,7.83-1.5,13.5-9.17,15.17-10.83a13.5,13.5,0,0,0,4.17-6.67c0.67-3,0-7.5,0-9s0.83-3.83,1.5-4,2.17-1.17,5-3.33,10.17-9.17,11.67-9.83,4.17-4.33,3.67-1.33-6.67,6.33-9,8.67-8.5,14.83-8,17.5-4.17,4.5-.17,4.83,4.5-1.33,7.5-1.67,7.83,0.83,7,2-4.17,1.33-6,1.5a33.13,33.13,0,0,0-7.67,2.17,39.5,39.5,0,0,0-7.83,5.17c-2,1.83-5,5.17-.67,4.83s7.33-1.17,10.17-.33,4.83,0.83,4.33,1.5-5.33,1.5-7.17,1.33-4-.67-6.17-0.17-4.5,1.67-5,1.67a3.66,3.66,0,0,0-2.83.33,46,46,0,0,1-5.67,2.33c-3,1.17-3.83,1.5-5.83,2.17s-9.17,2.83-9.17,2.83c0.5,2.67.83,2,1.67,4s0.83,4,1.83,7.17-2.33,5.5,1.67,6.5,6,1.17,6.33,2.33-2.33.67-1.67,2.67,0.83,7.33,2.83,8.17,3.5,2,4.83,2.5,1.33,1.17,3.17.17,3.33-1.17,3.17-.5a4.31,4.31,0,0,1-2.83,3c-2,.67-3.33.5-3.67,2s-2,2.33-2.83,1.17-1.5-3.5-3.33-3.17-3.17,3-3.33.83,1-3.67,0-5.5-1.5-4.5-3.33-6a19.28,19.28,0,0,1-5.33-6.5,36.54,36.54,0,0,1-2.83-7.67,14.86,14.86,0,0,0-4.17-6.83c-1.5-1.17-5.83-.67-7.83-0.83s-4.17-1.33-6.5-2.5-4-2.67-5.17-.67a6.65,6.65,0,0,0-1,4.89c0.17,1.94,0,9.61,2,10.44s4.17,1.33,5.17,1.67,3.83,0.83,3.33,2.33-0.83,2.67-3.5,1.33-3.67-1.67-4.67-2.33-2-1.33-2-.67-1.33-2,.33,3,3.5,7.33,4.17,7.83a52.26,52.26,0,0,0,5.5,2.17s1.33,1.67,1.33,2.5,1.33,6.67,3.17,7.83,3.5,3.51,3.17,5.75-0.83,5.08-.83,5.08c3.33,1.67,5,1.5,5,3s1.33,3,.5,3.17-3.33-.83-4.83-1.5-3.33-1.67-3.5-.5a4.33,4.33,0,0,0,1.67,3.33c0.67,0.33.33-.67,2.17,2s3,2.67,4.67,2.83,3.83,0.45,4.83,1.22,4,0.28,5,.94,3.33-.22,4.5-0.94,2.83-6.22,2.67-2.56,1.17,6,0,6.67-3.5,1.5-4.5,1-2.33-2.83-4-1.33-1,2.17,0,2.83,2,1.17,3.17,1.83,1.67,2,.83,2.5-1.5-.56-1.33,1.39,2.83,5.44-1.33,1.28-4-4.33-5.5-5.67a33.77,33.77,0,0,0-4.33-3.33,9.74,9.74,0,0,0-3.17-1.67c-1-.17.17-0.17-1-0.17a24,24,0,0,0-3.5,0c-1.83.17-4.5,1.5-5.33,0.67a9.32,9.32,0,0,1-1.5-2.33s-2,.5-2.5,1.83-2.5,1.83-3.67,2.17-2.67.33-3.33,1.17-2,1.17-2.17,3.83-5.33,10.15-4.17,12.32,0.33,3.84,1.67,5.18,1,3.33,2.67,3-0.33.83,0.33,2,3.67,1.33,3.67,0a9.41,9.41,0,0,1,1.17-4.33c0.83-1.67-1-1.67.67-3.5s3.5-2.83,3-.17-2.67,7.83-.83,8.17,2.33-.17,4-1.67,2.5-2.33,2.83-3.67,0.33-2.68,1-5,0.17-3.16,1-3.82,1.17,0.33,1.67,1.33,0.33,1.32-.17,2.49-0.83,1.18-1,2.34-0.83,3.5-.33,4,2.5,0.67,3.5.5,2.17-.33,2.83.33,1,3.33.33,3.33-5-1.5-6.33-1.17-3,3.83-2.5,4.33-0.67,1.24-.67,1.24-2.5.76-2.17,1.26-1,2.33-1,2.33c0.67,1.17,4.83-.3,5.33.77s-0.33,2.49-1.17,4.36a6.6,6.6,0,0,0-.67,3.2c2.33,1.17,2.5,1.5,3.83,0s0.5-2.67,1.33-1.5,0.67-.67,1.33,2.33-0.17,3.5,1.5,2.83,3-.83,4.17-2.83,5.33-8.4,5.33-8.4c0.5-1.77,1.83-5.43,2.67-5.6s2.83-.33,1.67,2.33-5.67,10.67-6.17,11.67-2.33,1-3.5,5.33,2.33,5-.33,4.65-3.67-4-5.33-2.32-1.67,2.5-1.67,3.17,1.17,1.67-.17,1.5-1.17-.83-1.67-1.17a21.83,21.83,0,0,1-2.17-2.67c-1.83-.17-3.5.32-5.5-2.26s-2.17-5.58-3.5-7.24-3-3.79-5-4.81-2.67-1.69-4.83-1.69S426.89,270.32,427,271Z" fill="#000000"/><path d="M425.67,252.89s2-6.5,0-8.33-3.33-3-2.67-4.17,1-3.56,1.69-3.11,1.21,3.28,2.34,4.61,2.63-1,2.13-2.33-2.43-5.83-2.13-6.83,0.3-3.5,1-5.17-0.5-4.5.17-5.83,0.7-3.17,1.1,0,2.23,2.17,2.23,4-1.17,5.5,0,6.5,0.83,4.67,2.17,2.33a20.29,20.29,0,0,0,2.5-6.5c0.17-1.5,1-2,1.17-4.33s0.17-3.34,1-3.75a1.52,1.52,0,0,1,2,.75c0,0.5,1.17.57,2.17-.88s1.5-2.62,3.17-3.45,5.17-1.67,6-2.67,4-8.5,3.17-10.5-5.5-6-5.67-7a10.51,10.51,0,0,0-1.83-3,8.86,8.86,0,0,1-.33,3.17c-0.5,1.67-2.17,6.67-2.83,4.5a23.15,23.15,0,0,1-.83-4.5s0.17-2.83-.17-3.17a27.9,27.9,0,0,0-2.17-2c-0.67-.5-1.5-1.67-2.83-1s-3.5,4.83-3.67,3.17-1.83-1.4-.17-3.37,0.17-3.47,1.17-5.47-1.83-18.88-1.5-20.11,2.33-1.39-1.17-6.23-4.67-4.33-5.17-4.17-1.83-1-2.17,1.5a34.6,34.6,0,0,0,.17,6.67,51.34,51.34,0,0,0,2.67,4.67c0.5,0.5,1.33,2.83-.17,2.83s-4.51,2.5-5.34-1.17-3.66-4.5-2-7.83a10.19,10.19,0,0,0,1-6.8c-0.17-.87-0.2-2.54-1.52-3s-3.32-1.5-5.32-1.17-4.5.33-5-1-2.17-4.17-2.33-6.17-10.83-27.67-10.33-28.17-5.83-3-7.5-5.5-3.17-3.33-6-3-5,.83-5.33,2.33-3,3.67,0,4.67,6.5,2.83,7.83,2.83,3.67-1.17,4.67,0-1,4.83-1.67,4.83-3.5.83-4,.67a3.93,3.93,0,0,1-1.33-.33,14.32,14.32,0,0,0-2.83-.5c-0.67-.17-3.5-2.67-2.33-0.33s0.17,1.33,1.17,2.33,0.67,3.5.67,3.5-2.17.83-2.5,0-1.33-1.33-2.67-2-2.33-1.33-2.67-.33,1.67,1.5,0,3.17-2.17,1.67-2.5,3.17-0.83,1.67,0,3.33a29.12,29.12,0,0,0,4.5,5.67c0.67,0.5-.33.33,0.67,0.5s6.67,0.67,6.67.67l1.67,2.83-1.5,6.67a5.29,5.29,0,0,1-4.17-.67c-2.17-1.33-3.83-1.17-4.83-1.83s-0.83-.67-2.33-0.33a8.48,8.48,0,0,0-1.5.33,9.43,9.43,0,0,0-3.5,2.17l-3.17,9.33-2.33.5a28,28,0,0,1,4,4.33c1.33,2,1.83,3.83,3.17,4.17a36.87,36.87,0,0,0,5.33.33l3.29-1.67a1.91,1.91,0,0,1,2.38-.67c1.5,0.67,3.83-.17,3.67,1.33s-1.5,2-2.33,3.17-2.67,3.67-2.67,3.67-1.67,2-3.17,1.83-4.67-.83-5.5-1-2.5-.67-2.33.67-1.5,3,.83,3.33,4.67-.9,3.67.8-1.67,2.54-2.17,2.7-2.83.33-1.67,1.5,1.5,0.5,2.17,2.33,0,3.33.67,4.17a13.74,13.74,0,0,0,2,1.83,1.83,1.83,0,0,0,1.5.33,12.2,12.2,0,0,0,2.17-.17s0.67,2,2,1.67a29.91,29.91,0,0,1,3.67-1c1.33-.17,1.5-1.83,2.33-1.33s2.17,0.33.83,1.5-1.83,1.33-2.83,2.33-2.33,1.83-3,1.67-0.33-.5-3.67.17a26.91,26.91,0,0,0-4.83,1.5c-0.33,0-.33.67,1.33,2.33a20.41,20.41,0,0,0,3.17,2.83c1.17,0.83.58-1,1.79,1.17a7.57,7.57,0,0,1,1,4c2.83,0.5,3.83.33,3.67-.5a15.32,15.32,0,0,1,0-2.83s1-2.5,2.17-2,2.17,0.67,2.17,1.5,2,7.17,2.83,5.83,1.67-5.67,2.67-5.67,0.33,2.68,2.5,1.09,0.5-1.25,2.17-1.59,1,0.33,3,.67,4.5,1.51,6,.92,4.17-.59,1.33,0-9.5.91-9.5,2.41,1.83,3.33,5.67,2.83,10.17-5,10.33-2.5-0.67,3.67-6.17,4.67-9.33.17-13.5,1.17-3.83.17-6.17,3.83-4.67,2.5-1.17,5.5-1.17,3.33,2.67,4.33,7.67,0.67,5.33,2.33-7.5-.33-5.5,1.83-0.33,3.94,2.67,4.56,6.33,0.94,7.17,2.61-0.83,3.67-3.67,4-3.83-.83-2.5,1.67,4.67,5.67,6.5,8.17,2.16,2.5,6.33,3.67,8.34,9.17,7.17,1.67-0.5-8.83,1.5-7.33,2,3.67,3.5,3.17,2.37-.5.69-3-2.52-2.67-2.19-6.83,1.37-5.83,2.19-3.17,1.31,4,1.81,5.49S424.79,258.7,425.67,252.89Z" fill="#000000"/><path d="M340,169.22a1.26,1.26,0,0,0-.73.1c-0.39.27-.81,1-1.11,2.56-0.5,2.67-2.5,4.5-1.33,6.67s1.5,4.67,3.17,4.83,3.17-1.9,2.67.63,1.17,5,2,6.37,1.88,5.17,2.28,1-0.94-10.67-.78-12.83,1-6.83-.67-8A10.46,10.46,0,0,0,340,169.22Z" fill="#000000"/><path d="M240,235.06a4,4,0,0,1-2.5,2.22c-1.67.61-2.83,1.61-4.83,2.11a12.42,12.42,0,0,0-4.67,1.83c-1.83,1.17-3,0-4,1.83s-1.5,1.81,0,4.32,0.83,5.51,2.83,3.68,0.5-2.52,3-3.68,1.17-3.16,2.5-1.16,3.17,2,4.17,2.67,1,4,2,1.17,0.83-3.33,1.5-4.17,1.33,0.65,2.17,1.49a5.11,5.11,0,0,0,2.67,1.84,7.44,7.44,0,0,0,3.83,0c1-.33,2,0.17,3.5.33s2.33,0.5,3.17-1.33,0.17-4.67,0-5.67-2-3-2.5-3.67-2.17-1.83-1.5-3-0.5-3-1.5-3.33a7.85,7.85,0,0,1-3.33-1.67c-1-1-3.67,1.5-4.33,1.83A12.63,12.63,0,0,0,240,235.06Z" fill="#000000"/><path d="M239.4,258.39s-3.56,1.67-4.9,1.67-1.67,1.15-3.5,2.24a12.42,12.42,0,0,1-3.83,1.43,22,22,0,0,0-2.5,2.94,9.58,9.58,0,0,0,0,4.36c0.33,1.2,1.67,6.7,1.67,6.7,0.67,1-1,2.16,1.83,3.58s1.15,1.09,3.74,2.76,0.93,3.83,3.59,2.33,3-2.5,4.67-3,3.5,0.33,4.83-.17,1,0,2.83-3,2.83-7.74,2.17-9.2-1.17-1.36-2.5-1.49-1.5.38-2.67,0.29-4,1.59-3.17,0,1-1.76,2-2.26,0.17-2.33,1-2.5a3.25,3.25,0,0,1,2.5,0c0.83,0.5,2.91.67,3-.33l0.13-1s1.83,1.17,2.33,0,1.5-1.83,1-3.83-1.83-2.83-3-2.83H247a2.8,2.8,0,0,1-2.17,1.17,10.19,10.19,0,0,1-2.83-1.17C240.83,256.56,239.4,258.39,239.4,258.39Z" fill="#000000"/><path d="M213.33,259.56l-1.5,2.74s-1.83,1.26-1.33,2.09-0.75,2.71,1.37,3.86S214,269,215.67,271s1,3,2.5,1.87,2.5-1.56,2.5-3.36-0.5-1.64-1.67-3.06-4.25-2.44-3.46-4.17S213.88,258.55,213.33,259.56Z" fill="#000000"/><path d="M205.33,289.39s-2.83-5.33-3.17-6.5a9.74,9.74,0,0,0-2.83-3.5c-0.83-.67-3.17,0-4,0s-3.17,1.83-2.33,2.67,2.5,0.7,2.17,2.19-0.17,2.66-1.33,2.65a15.74,15.74,0,0,1-4.17-.67c-0.83-.33-1.67.33-2.33-0.5s-3.17-.83-4-0.67a10.2,10.2,0,0,0-3.5,1c-1,.67-0.83,1.33-2.5,2.33s-2.33.33-2.5,1,0.33,0.67-1,3-1.33,3-2.33,3.67-2.5.17-3.33,2.83-2.5,2.33-1,3.5,3,0,1.5,1.17-0.87,1.5-2.1,1.83-0.06-.67-1.23.33a16.84,16.84,0,0,0-2,1.94c-0.67.72,1.33,0.56-.83,1.39s-3.83-.1-3.33.87-1.33,7.13-2,7.63-0.67,1.5-2.17.83-3.67-1.17-4.33-.67-3,.67-2.33,2.83,0.1,1.55-.12,2.94-4.55,1.72-1.88,2.89,4.33-1.5,4.33.67,0.17,2.67-.33,4.33-2.5,2.17.33,3.33,3.83,0.24,3.83-1.55,0.17-4.62.67-4.62,1.5,0.44,2.5,2.06,1.17,2.44,2.33,1.44,1.33-4.17,1.83-5,3-4.33,3.33-2.67,0.17,5.36.67,6a21.32,21.32,0,0,1,1.83,2.77c0.67,1.21,3.5,4.25,4.5,2.06s-0.33-5.85-.33-6.52a4.56,4.56,0,0,1,.67-2.5c0.67-1.33-1.5-2.52-.17-4.18s3.14-.34,3.07,0-1.93,3.84,0,5,1.93,3.83,3.1,1.33,2.67-7.17,3-7.67-3-3.51-3-4.5-0.17-4.42,1.17-4,1.83,3.54,2.67,1.21-0.67-3.67,0-4.5,0.83-2.5,2.33-3.17,2-2.33,2.17-.83,0,3.67,0,5.5-1.5,9-.5,10,6.33,3.65,7.17,1.66a16.34,16.34,0,0,0,.83-6.82c-0.17-1.83,1.33-3.59,2.17-3s2.33,0.79,3,0a7.44,7.44,0,0,0,1.5-3.79c0-1.17-3.17-3.33-2.5-4.33s0.67-1.5,2-1.67,2.33,1.33,2.17-.33-1.33-2.83-2-4-2.83-2.17-2-3.83,1.5-1.83,3.17-2.33A10.2,10.2,0,0,0,205.33,289.39Z" fill="#000000"/><path d="M206.67,317.72c-0.61.42-5,3.81-3.5,4.32s3.67,2.84,5.67,2.84,4.17,0,4.17,1.5-0.67,1.17-3.17.67a24.18,24.18,0,0,0-7-.67c-2.69.17-4.35-1.16-4.69,1.09s-1,1.91,0,4.08-1.22,1.33-.53,3.5-0.14,2.67,3.36,2,5.17-.72,7.5-1.11,5.17-.61,3.5,0-3.5,1.4-5.33,1.92-7.5,2-7.5,2-2.83.17-3.67,0.83-2.33-2.33-2.5,1.67-3.67,5.5,0,5.83a14.45,14.45,0,0,0,9.17-1.83c2.33-1.5,4.33-3.67,6.33-4.17s1.5,0.83-1,3.17-2,1.17-3.83,4-2.17,3.33-3.33,2.67-2.5-3-5-1.33-3.17,2-4,3.5a4.37,4.37,0,0,0,0,3.89c0.33,0.45,4.5,1.28,6.5,1.28s3.21-5.23,4.1-1.28-0.06,3.78,0,4.95,1.9,2.29,1.9,2.29h1.5s0.83,1.09,1.83-1.18,0.33-2.77,1.67-3.61-0.84,1.67,1.58,2.67,3.59,0.5,3.92-.67,1.75-2.23,1.21-4.45-4.37-5.39-1.71-4.39,3,0.83,3.17,2.33-0.17,2.17,1.83-.33,2.83-4.33,3.5-4.67,1.11-.5.72,1.67-2.89,4.11-2.39,5.39,1.33,2.28,1,2.78-2.67-.17-1,1,5.33,0.83,6-.17,3-5.83,4.17-4.83,1.5,2.17,2.67,2.33,5.05-.56,5.61-1.11,2.22-2.05,3.06-1.72a2.17,2.17,0,0,1,1,1.72c0,0.11-.5-0.22-1.5,1.28s-1.7,4.21-2.27,4.77l-0.56.56a25.87,25.87,0,0,1-3.83.88c-1.33.12-3-1.51-4.17-1.44s-5.83.73-5.5,3.06,2.17,3.83-.92,3.83h-6.08a17.63,17.63,0,0,1-1.31,2.33c-0.52.67-1-2.17-.52,0.67s8,8.17,10.17,8.33a11.24,11.24,0,0,0,6.33-1.17c2.5-1.17,7.5-4.33,9.17-5.17s3.83-1.33,4.5-3.5a12.54,12.54,0,0,1,1.5-3.33s1,1.17,4.67-.83,2.5-2.42,4.33-3,1.67-1.46,3.17-2.79,2.17,2.25,2.67,2.79,3.5,0.62,4.5,0,1.17-2.79,2.5-2.79-1.5,3.5,3.17,3.5,5.33,1.58,6.83-.71,4.69-8,5.59-10,1.74-7.83,3.07-9.67-1-11.37-3.07-12.19-4.09-3.54-5.26-2.93-3.33-.93-2.83,2.93,1.17,9.18-.5,7.35-2.83-5.09-3.83-4.88-3,1-3.33,1.7-1.33,3.25-1.67,1.46-1.5-2.79-.17-4.12,2.17-2.83,1.33-3.67-1.33-.64-3.17-1-3.5,0-2.5-1.51,2.83-1.51,3-2.84-0.83-6.83-2.5-8.33a5.54,5.54,0,0,1-1.33-5.54c0.5-1.46-.17-3,0.33-3.62s0.83-2.83-.33-3.67-6.5-.5-7,1,1.33,7-.83,8.33-2.5,1.82-3.5,2-1.67-1.17-2.17,0-2.5,1.5.33,4.17a28.05,28.05,0,0,1,5,5.83c2.33,3.17,3.5,4.83,2.33,5.67s-3.06,4.12-3.2,4.06a6.16,6.16,0,0,0,.7.94s4.5,1.67,4.67,5,3.33,6.5,1.17,7-5.56-1.33-6.53-1.5,0.86,0.33-2-.5-4.17,0-6.17.5-2.67.83-3.5,0.33-3.28-2.13-3.06-3a23.5,23.5,0,0,0,0-4,1.26,1.26,0,0,0,0-1.54,5.37,5.37,0,0,0-1.94-1.31s-1.5,0-2,0-1.33-1.4-.83-1.86,2.33-1.49,1.83-2.47-2.33-2.2-3.17-2.93a22.94,22.94,0,0,1-2.5-3.56s0.67-3.78,0-3.56a25.1,25.1,0,0,1-3.33.89c-1.67.33-.67-1.61-2.75-0.89s1.42,1.56-2.08.72-6-4-5.5-5.83-2.67-2.34-3.67-2.17a20.12,20.12,0,0,0-3.33.67C209,317.22,207.44,317.19,206.67,317.72Z" fill="#000000"/><path d="M183.5,333.54s-2.67,4.6-4,5.64-4.36,5.08-4.1,5.56a14.76,14.76,0,0,0,4,2.65c1.72,0.83,3.22,1.17,4.06-.5s0.67-3.92,2.17-7.71,2.83-8.57,2.83-8.57S187.17,326.85,183.5,333.54Z" fill="#000000"/><path d="M345.83,395.89s-3.67,2.17-4.83,2.83-4,1.17-1.83,1.83,3.67,1.5,5.17.83,2.83-.17,4-1.67,1.83-2.67,1.67-3.83S345.83,395.89,345.83,395.89Z" fill="#000000"/><path d="M331.17,400.22s-0.5,1.5,0,2.17,2.72,2.5-.22,1.17-3.61-2.36-4.61-1.43-2.83,1.1-3.17,2.6-0.33,3.33,1.67,3.67,2.61,0.83,2.89,1.5,1.22,3.17,0,3.17-2.39-1.83-2.39-1.83a10.86,10.86,0,0,0-2.33,0c0.17,0.17-.35.17,0,1a4.69,4.69,0,0,0,1.34,2.5,18.44,18.44,0,0,1,2.17,2c1.5,1.5,2.33,4.17,3.33,3.33s2.21-4.67,2.61-3.67a11.84,11.84,0,0,1,.89,2.33c0.33,1.33,1.67-.18.83,1.49a3.25,3.25,0,0,1-2.83,2c-0.67,0-2.17-.17-1.17,1s3.5,1.67,2.33,3.83-2.69,7.17-3.84,7.5-4.91,0-5.78-1.17-1-3-1.87-4-2.83-1.17-3.33-1.67-2-2.33-2.17-.17-0.5,5.25,0,7.12-0.33,6.21,3.83,8.71,3.84,4.83,5.5,5.17,4.16-.83,5,0.83,2.67,2.5,2.67,3.33,0.5,1.83,1.17,3.67,2.17,2.67,3.67,4.83,1.67,4.33,2.83,6.67,4.17,3.17,5,2.67,4.38-.83,4.86-2.5,0.53-1.67,0-2.5-0.14-2.33,0-3,0-2,2.31-.67,2.93,3.5,4.47,1.33l1.53-2.17s0-2.67,1.17-3,2,1.5,2.76-.5-0.59-4-.93-5.17-1.17-1.5,0-3.83,1.19-1.67.93-5,0-1.83.22-4.33,1-2.53-.22-3.76a8,8,0,0,0-2.93-1.74s-1.57,2.83-2.53.83a15.86,15.86,0,0,1-1.13-5,12.28,12.28,0,0,0-2-3.33c-1.2-1.33-3.15-2.83-3.68-2.17s-0.86,1.83-2.19,2.17-4,.83-2.17-1,2.33-3.33,3.67-3.83,2.17-4.17,3.17-5.17,1.83-.33,2.5-1.33-1.59-3-1.3-3.83,3.06-2.67,3.1-5.17-1.3-5.83-2.13-5.67-1.17-.18-2.33,0a11,11,0,0,0-4,1.42c-1.17.75-2.44,1.75-4.13,1.75a18.51,18.51,0,0,1-4-.17,16.41,16.41,0,0,1-5.5-1.59s-2.17-.86-2.17-1.47S331.17,400.22,331.17,400.22Z" fill="#000000"/><path d="M369.83,403.06s-3,3.33-2,4.5a6.66,6.66,0,0,1,.9,5.17,18.83,18.83,0,0,0-1.1,4.5c-0.13,2,.67,2.67,1.1,4.17s-0.5,2.17-1.12,4.17-2.88-.83,0,3.83,1.72,4.67,2.22,7.33-0.5,2.83,0,5,2,4.33,2.33,5.5a6.42,6.42,0,0,1,0,2.67c0.5,1.33,3,1,4.33.83s4.33-.67,5.5-1.5,3.17-3.83,3.17-5.17,1-5,0-7.33-5.17-4.67-5.17-4.67,4.23-1.5,6.78-1.17a37.4,37.4,0,0,1,5.72,1.17c2.67,0.67,3.5,1.67,4.83.5s2.33-4.83,3-7.67,4-5.67,3.5-7,4.83-10.33,6.17-11.67,4-6.17,3.17-7-7.17-2.5-8.83-3.17-3.67-2.37-6-.69-1.67,3.85-2.33,1.69a8.35,8.35,0,0,0-2.83-4c-0.5-.33-1.17-1.5-2.67-1.67s-5.67-1.17-6.33-.83,0.33,1.5-.17,2.5-1.83-.5-1.83-0.5a2.16,2.16,0,0,1-1.17-.5c-0.67-.5-2.5,1-5.17,1.83s-6.17-.83-4.5,2.5a12.46,12.46,0,0,0,3.19,4.5,4.16,4.16,0,0,1,1.31,2.67c0.17,1.33,3.33,5,.67,3.17S370.67,402,369.83,403.06Z" fill="#000000"/><path d="M436.33,403.56l-7.17,5.83s-6.83,5.67-7,7-0.67,5.33-1.33,6.83-3.67,2.83-2.33,5,2.83,1.5,1.17,2.83-2.17-.5-2.5,1.5,0.67,3,0,3.67-2.5,1.5-2,2.33,1,2,1.33,2.5,1.33,1.33.5,1.83-2.67.5-1.92,1.33,2.09,1.5,2.25,2.17,2-.83.17,0.67-1.53.67-2.6,2.33-2.09,3-1.58,3.83a13.12,13.12,0,0,1,.84,3.33,2.3,2.3,0,0,1,0,2.17c-0.67.83-.29,2.67-1,3.5s-0.71,3.5.14,3.83,0.67,2.33,1.84,3.17,3.33,0.95,4.33,1.47a13.37,13.37,0,0,0,5,.69c1.83,0,3.33-.67,5.49.67s3.33,0.67,4.17,1.83,3,4,1.5,4.5-5,1.17-7,0-7.33-2.5-8.17-2.67-1.5,1.5-1.5,1.5,0.5,6.17,1.83,7.5,6.17,7.5,7.83,8,3.5,3.5,5.83,2.67,3.83-.67,5.33-2,1.5-3.17,2.33-1.83,1,7,2.5,8a10.82,10.82,0,0,0,6.33,1.5c1.67-.33,4.83.83,4.83,0.83s7.67,2,8.17,2.17a11.62,11.62,0,0,0,5-.83c1-.67,4.83.88,4.83,0.88l6,1.79s2-2.83,3-2.17,1.67,2.33,2.67,3,3.67,2.5,2.67,0a21.92,21.92,0,0,0-3.67-5.5c-0.67-.83-4.5-3.33-1.5-2.83a13.88,13.88,0,0,1,6.5,3c1.83,1.33,6.5,2.83,8.17,4.17s3.83,1,4.5,0,2.83-3.83,3-5,0.17-4-1.17-5.5-4.67-3.83-2.67-4.33,5.67,3.17,5.67,3.17a16.73,16.73,0,0,0,3.67,4.67c0.67,0.33,5,3.5,4.5,4.67s-0.67,6,1.33,6.17,2.5-2.33,3.67-1.17,4.67,6.5,6,7,2.83,4.5,2.83,5,1.33,2,0,2.67-1.83-.5-3,0-3-1.5-2.5,1.33a27.77,27.77,0,0,1-.17,7.17s7.5-2.83,8.83-3.67,5.83-.83,5.83-0.83,2.67-4.5,3-1.67-1.67,4.5-1.33,6.17,1.17,3.17,2.17,3.5,2-3.17,3-2,0.5,2.17,0,4.5,6,5.67,7.33,6.17,2,7.5,2.32,8.83,4,9.5,3.35,11-3.67,3.83-4.33,6.17,0.33,7.67-1.33,8.17-5-2.17-6.83.67-4.5,6.83-4.67,8.67,5.17,5,5.5,6.17,1.83,4.33,1.17,4.83-7,4.5-9.17,4.83-2.17,1.33-6.17,0-5.17-.17-7.33-1.5a38.22,38.22,0,0,0-6.5-2.67c-0.83-.33-2.33,1.83-1.67,2.83s2,2.33,0,3.17-0.83-.83-3.33,2.17-3.5,4.33-3,5.17-0.17,5,2.33,5.67a49.63,49.63,0,0,1,9,3.83c0.5,0.5,4.5,0,5.67-1s1.67-4.5,2.83-5,3.83,0.33,4.5,1,1.33,3,2.67,1.83,0-5.17,0-5.67,1.33-2.33,3-.33,3.33,3.83,4,4,2.83-1,2.83-1,2.33,6.83,3.33,7.83,3.17,6.17,4.83,6.5,3.67,2.83,4.83,2,3.17-1.33,3.17.17,1.83,3.33,0,4.33-3.5,1-3.17,1.67,3.46,2.5,4,3.67,3.85,5,5,5.5a37,37,0,0,0,6.83,1.67c1,0,1-2.17,1.83-1.33s1.92,1.46,2.17,2.17c0.83,2.33,3.67,1.67,4.67,3.33a12.05,12.05,0,0,0,4.17,4c2,1.33,4.83,3.33,6,3s2,1.17,4.83,1.5,3.5-.67,4.67.83,1.83,2.33,2.83,2.5,1.5-2.83,1.67-3.67,0.67-6.67-1-7.33-4.17-3.33-5.67-4.33-5-6.33-6-6.83a64,64,0,0,1-6-5.17,40.9,40.9,0,0,1-2.33-4.83,6.89,6.89,0,0,0,1.83-.83c0.67-.5,1.17-0.17,2.67,2s4,6.17,5.33,4.5,0.5-1,3,1.83,15.67,8.17,15.67,8.17,2.67,2,3,.83a18.8,18.8,0,0,0,0-5.33c-0.17-2-2.12-4.5.19-4.83l2.31-.33s-2,1.67,0-1.33,0-9.83-2.83-11.83-5.33-3.17-3.5-4.67,3-2.33,1.83-4a8.55,8.55,0,0,0-2.83-2.5s-1.5-3.33-2.33-3.17-1.17,4.5-2,1.17-1.83-4-2.67-3.5-2,2-2.5,1.67,0,0.67-.67-1.67-2-1.5-2.33-4.33-5-3.33-3.67-5.83,3-3.33-.33-3.67-5.67,1-4.83-.67a7.7,7.7,0,0,1,3.17-3.33c1.17-.67,4.5-1.33,3.67-3.17s-8-4.17-6-6.33,1.17-3.5,3.83-2.5,2.17,1.67,2.83-.33,1-2.83,2.33-1.5,0.83,1.67,1,3a4.26,4.26,0,0,0,2.67,3.17c1.33,0.5,3,.5,3.83,3.33s0.83,3.33,2,3.33,2.17-1.17,2.33-.5-0.67,1.83.17,3.67,3,6.5,4,6.5,2.33-.67,2,0.83,1.62,3.33,1.64,3.5,4.19,5.5,5.36,5.17,3-.33,3.33-2.17,0.33-3,.67-5.33-2.67-7.5-1-7.5,0.67,3.83,2.83,3,5-7.5,6.67-8.5,1.33-3.67,0-3.67-1.67-3.17-.17-2.83,3.33,2.67,4,1.33-0.5-3.5,1.33-5-0.67-10.33-11.67-8.5,0.83-5.67.83-5.67,3-.67-1.5-1.33-10,3-7.5-.5-1-5.33-1.5-6.5a35.63,35.63,0,0,0-2.17-3.67c-0.5-.83-4.83,1-5-0.67a9.84,9.84,0,0,1,.33-3.33s1.17-2.5-.5-2.5a13.37,13.37,0,0,0-5,1.67c-0.5.33-1.33,4.17-3,1.5a36.45,36.45,0,0,0-4.33-6.17c-1.83-2-1.5-3.33-2.67-4a14.62,14.62,0,0,0-5.5-1.83c-3-.5-6.5-0.33-4.67-2.75s4-2.59,3-4.09-3.83-1.33-2.5-2.83,4.67-.83,3-2.17a6.65,6.65,0,0,0-2.83-1.5s-1.83,1.5-1.5-.83,1.5-4.17,3.83-2.67,5.5,2.5,7.5,2.33,7-.33,4.17-2.67-5-4.67-8.33-5-5-.5-5.17-1.33-2.17,0-2.17,0-5-1.33-2.67-2.67,3.33-.33,5.67-1.67a20.45,20.45,0,0,1,7.17-2.5c1.33,0,1.67-2,1.67-2s-9.17-9-9.83-9.33-1,1-1.5,3.17-2.33,6.17-3.83,5-1.17-4.67-.67-5.17,2.67-2.17.67-2.17-8.67,2-5-.67,5.17-3.5,6-4.17,1.67-1.33,1-2.17a17.8,17.8,0,0,0-4.17-2.67c-1-.5-3.33-2.83-4.83-2.5s-2.5,3.67-4.83,2-4.17-2.5-4.17-3.83,0.67-4.83.17-5.33-3.33-.17-4.33.33-4.83,2.67-4.17,0,1.17-3,2.5-3,1.83-.33,2.17-2.17-6-9.17-8.17-10.17a19.07,19.07,0,0,1-4.17-2.83s0.47,1.5-.85,3.83-3,0-2.65,2.5,0.5,4.67.5,4.67c-1.83-.67-2.5.83-5-2.67s0.33-9.17-1-9.67-3.17-.17-3.83,1-3.33,4.83-4.17,3-2.5-2.83-.33-4.5,4,0.83,3.33-2.17,0.83-2.67-1.67-3.33-4.83,1.66-4.83-.67a37.24,37.24,0,0,1,.33-6.33,5.24,5.24,0,0,0-2-5c-1.67-1.5-4.17-1.83-6.33-2.83s-5.17-3-7-3.33a14,14,0,0,0-7.33.33c-2.83,1-4.67,1.17-4.33,4.17s4.17,4.67,2,5.17-4.5-.33-4.83,1-1.67,3-2.17,1.83-1.67-4-3.17-2.83-5.17,3.17-6.33,5.67-1.5,5-3.67,4.5-2.67-4.5-2.33-5,2.17-2.33,1.67-4,2.17-12.67,2.17-12.67c-3.33-2.33-4.33-5.67-2.83-7.33s-2-4.5-2.67-5.33a5.17,5.17,0,0,1-1.33-3.83c0-2.17.5-9.33-1.67-10s-5.33.83-6.5,1-2.83-.67-6.83,1.17-5.5,4.67-4.33,5.17,1,4.67.33,3.5-0.5-3.83-3-3.17-4,1.5-3.33,2.67-0.17,3.17-3.33,1.67-1.83,2.33-.67,2.83,4.67,2.67,5.33,3-3.17,1-4,.67-5.67-1.67-3.67.67,5.17,4.5,3,4a43.94,43.94,0,0,0-6-.83c-0.5,0-.83,1.83-0.5,3.33s-0.17,4.67,0,6.33,0.83,4.17,3.33,4.5,4.33-1.5,3.83,0-1.83,3.67-2.83,4.17-2.5-.5-2.83.83-0.5,2.5-2,3.33-1.5,4.17-.5,5.67-0.5,2.33,3.5,3.67,4.83,0.17,5.83,2.17-1.5,6.5-1.5,6.5c0.17,2.5.83,8.67,0.17,10s-1.83,4.33-2.67,1.33-0.67-5.5-3-4.83-6.33,2.17-6.5,1.5,2-3,2-3c1.17-.5,5.33-2.5,5.33-2.5s3.67-.5,1.67-2.33-3.33-2.17-4.5-3.83a12.15,12.15,0,0,1-2.5-4.83c-0.5-2.17-4.17-5.83-4.17-6.67s0.67-3.17.67-5.33-0.17-7.5-1-9.33,0.5-12.5,2-16.33-1.83-5.33,2-8,7.5-5.83,8.5-8.17-4.83-3.33-6-3.5S436.33,403.56,436.33,403.56Z" fill="#000000"/><path d="M490,405.06c0.06,0.68-1,6.83-1,7.5s1,7.43,2.33,8.13,1.83,5.2,3.17,7.54,5,6.5,8.33,5.17,6.17-4.17,7.83-4.33,7.67,0.83,10,1.33,7.67,0.67,6.5-1.5-3-7.17-5.5-11.17-2.83-5.33-4.67-6.83-6.67-3-8.83-3-5.83,3.83-9.67.17S489.9,403.83,490,405.06Z" fill="#000000"/><path d="M523.17,541.22s-4.83,5.33-4.83,6.17-2.5,9.33-.67,11,2,4,4.33,4.5a15.68,15.68,0,0,0,7.36,0c2.8-.67,6-1,6-4.83V547.22a3.75,3.75,0,0,0-2.67-3.5c-1.5-.33-5-2-5.33-3.33S523.17,541.22,523.17,541.22Z" fill="#000000"/><path d="M449.17,593.06s-2.5,5.17-3.17,7.33,0.5,6,0,9.5-4.33,9.33-2.67,10.67,1.17,3.5-.42,4.67-4.25,1.17-4.42,3.67-4.33,6.33-.83,5.67,2.77-2.17,5.05-2,3.95,1,4.61-.83,1.33-3.5,1.83-2.17,1.17,1.33,1.17,3.33-0.33,8,1.33,8.5,3.17,0.33,6.33-2.5,1.5-4.67,4-5.33,3.83-1.17,4.33-3.5-1.83-4,0-5,3-2.67,3.5-2-0.17.5,0.83,2.5,2.33,1,3.5,1.5,2.5,3.33,2.5,4.67,2,1.17,3.33,1,3.67,2,5.33,2.17,2.67,1.5,4.5-.5,2.67-3.5,3.67-3.83-1.33-1.17-2.33-2.5-1.33-3-2.5-3.5-1.5-.33-3.17.17-3.83,2-3.33-1-0.5-4.61-1.33-6.39a12.39,12.39,0,0,0-4.17-4.61c-2-1.5-5.67-1.17-6.5-3.5s-2.17-4-3.5-4.17-5,1.33-4.83-1,0.5-4.83-2.17-4.5-0.67,5.33-3,3a14.39,14.39,0,0,1-3.33-7.5C453.33,594.22,451.17,591.72,449.17,593.06Z" fill="#000000"/><path d="M473.33,647.39c-0.42.27-6.17,4.5-6.33,5.67s-3.65,6.5-2,6.67,3.49,0.5,5.66-1.17,1.17-4,3.33-4.93,3.5-1.57,4.17-3.74S474.8,646.46,473.33,647.39Z" fill="#000000"/><path d="M494.5,657.39s0.32,1-.76,4.17-2.41,3.33-1.08,4.5-0.24.83,1.88,2.33,4,2.5,4,1.17-0.17-6.17,1.17-7.17,2.17-1.83,1.33-3.67-3.73-1.67-4.28-1.83A6,6,0,0,0,494.5,657.39Z" fill="#000000"/><path d="M133.67,384.22s-1.67,2.5,0,3.67,0.67-.17,1,2.5,0.17,4.17,1.17,5.33,1.33,1.54,1.67,4.19a12,12,0,0,1-1.17,7.31c-1.17,2.17-2.32,2.33-3.41,5.33a42.45,42.45,0,0,0-1.59,8c-0.33,1.83-.5,2.83,0,3.83a1.41,1.41,0,0,1-1.17,2c-0.67-.17-2-1.13-1.83,0s1.33,3.65,1.5,4.82-1.36,2.66-1.51,4.08a5,5,0,0,0,0,2.25,2.59,2.59,0,0,1-.82,1.83c-1.67,2.17-2.67,3.17-2.17,5.17s1.24,2.67-.13,3.83-5.2-2-1.37,1.17,6.07,5.33,6.07,5.33c0.6,2,.1,1,0.6,2s4.67,1,4.83,1.67,2.08,2.17,2.29,3,3.88,4.67,4.38,6.67,2.33,6.83,3.67,6.17,2.67-3.22,4.33-3.69,5.17-5.64,5.17-5.64,0.5-1.5,1.5-.5,0,1,1.67,1.67,2.33,0.17,3.67-.83,2.83,0.17,3.83-.83,1.83-5.83,1.83-5.83,0.5-6,0-6.5,4.33-6.83,6-8.17a9.28,9.28,0,0,0,3-4.67c0.33-1.33-.67-2.67,1.17-4.09s1.33-2.08,4-3.91,12.17-9.33,13.67-10.67,2.67-4,5.5-4.83,6.5-4.33,7-4.83-4.5-7.67-5.17-9.5-2.67-3.67-3.83-5.5-6.91-5.67-8.12-7-4.38-2.33-6.21-2.33-5.33.17-5.5,1.5,0.67,2,.33,4-2.67-3.5-2.67-3.5l-3.33,1s-1,.5-2-1-1-3.17-3.33-4.5-2.33-.83-4-2.5a12.64,12.64,0,0,1-2.67-3.33,3.83,3.83,0,0,0-3.67-1.33,9.19,9.19,0,0,1-2.5,1.5c-2.5,1.17-3.67,2-5.67,2.17s-4.5,0-4.5.67,0,3.33-.5,2.83-0.33-1.06-1.83-1.78-1.67-2.22-3.5-1.39-2.83,1.11-3.33,1.39-2-.22-2.17.78Z" fill="#000000"/><path d="M201.5,422.39s-4,3-7,5.33a101.13,101.13,0,0,0-9,7.58,3.63,3.63,0,0,0,0,5.09c0.67,0.67.33,3.67,0.33,3.67a11.21,11.21,0,0,0-3.89,2.33c-1.11,1.33-2.44,6-2.78,7.67s-0.12,7.67,2.78,7.67,2.56-3,4.89-1.67,1.67,5,1.67,5-5.33-3-3.33,0,4.33,4.33,7.33,2,2-2.33,5-3.33,8.67-2,7.83-.67-2.17,5-3.5,5.19-2.33.76-4.67,2.45-8.67,3.15-8.67,3.76-4,2.27-4,2.27,3.33,3.67,4,4.33,11.67,8,14.33,7,6.33-3.67,8.33-2.67,2.67,0.33,7-1,7.33,3.85,10,3.76,7.67,0.24,8,1.91-5.33,4.67-6.67,5.67-3,.67-7,0a63.64,63.64,0,0,0-9.33-1c-2,0-7.33-.67-7.83,0s-6.83,3-8.5,4.67-4.67,1-3,3.33,3.67,4.67,5.67,7.33,13,9.67,15.67,9,4-1.58,5.33,0,1.67,5.62,3.33,8,8,8.33,12.35,7.67,7.32,0,11.32-1.34,6.67-2.33,9-2.66a7.59,7.59,0,0,0,5-3c1-1.33.67-2,3-2.33a39.89,39.89,0,0,0,8-2c1.33-.67,2-1.67,3-4s-0.33-3.67,1.33-4,3.67-3.33,4.67-.67,4.45,5,7.56,5.33,8.08-1.33,7.1,1.67-3.68,4,0,4.33,16,2.67,17.49,1,2.52-1.67,4.19-3.33,4.69-3.33,2.35-4.67-6.54-1.67-4.94-4-0.12-5.33-1.59-3.33-4.54,6-5.17,3.33,2.4-5,3-6,0.93-3.33,2.12-4.33,1.52-3.67,3.19-2.67,0.67,3.33,1.67,4.67,4.35,0,5.67-.67,4.33,5,4,1.67-0.33-6.67-1.67-8.67-3.64-1-6.32-3.33-4.21-3.33-4.94-4-3.7-2-3.72-4.67-2.41-4.67-3-4-2,9.33-5.17,1.67-12-8.54-9.72-10.27,2.91-13.06,2.58-14.4-7.2-23.15-7.1-26.41-3.89-7.94-3.89-7.94-4-1.31-5-3.31-4.67-5.33-5.67-5-7,0-7,0a2.45,2.45,0,0,0-1.33,3.32c1,2.37,2.33,6,2,8.7s-0.33,11.67.67,14a26,26,0,0,1,2,7.5c0.33,2.84-2,4.84-2.67,6.17s-3,1.33-3.67-2-0.33-3.33-1-7.67-2-5.67-2.33-7.33-2-4.15-3-6.41-4.76-4.26-4.55-4.92-1.12-2-2.45-3a2.32,2.32,0,0,0-2.67,0s-2.33-1.31-.33,1.35,4.33,6.59,4.33,6.59-0.33,4.08-3,3.41a31.5,31.5,0,0,1-5-1.75s-0.67,4.42-2.33,4.42-5.67,2-5-.67,3.27-3.48,2.8-5.41-1.13-2.26-2.8-2.92-3.33-2.33-4.67-3.33-3.67,0-4.67-1.69-3,0-3.33,0-1,2.69-.67,4.69-1.33,6.16-4,4.91-5,3.6-4-1.66,0-6,.67-7.94,1.33-6.69-.33-8.34-6,0-6,0Z" fill="#000000"/><path d="M691.25,819s-4.5,3.25-5.25,3.5-2.5,3.25-3.5,4.5-2.75,4.5-2.75,6.5a9,9,0,0,1-2.25,6c-1.75,2.25-2.75,3.25-3,5s-0.25,3.5-1.75,5-2,3.25-4,4.25-5.5,0-3.75,1.75,8,0.25,5.75,2.5-5,2.75-6.23,4.75,3.23,6,6.23,5.5,11.25,0.59,13,0,6.25-.29,7.5-1.79,0.5-3.5,1.25-1.5a4.49,4.49,0,0,1,0,3.45,9.74,9.74,0,0,0,6.25,0c3-1.2,1.75,1.55,0,2.55s-9.33,6.25-5.92,5.5,7.92-3.75,9.67-4.75,2.75-1.25,4.25-3.25,3.25-3.5,3-2-4.5,7.5-2.5,7.75,4.75-2.75,5.25-.75,3.25,5,3.25,5,1.75-5.75,2.5-8.25-3.75-1.5-3.5-2.75a34.2,34.2,0,0,1,2.25-5,8.9,8.9,0,0,0-3.75,0c-1.25.5-4-.25-2.25-1.25s3-3,3.75-4,0.75-3-.5-2.5-3.25,2-4.5,2.25-2.75-1.25-1.5-1.75a3.32,3.32,0,0,0,2-2.75,14.16,14.16,0,0,0,.75-3.75c0-1.75.25-2.53-1.75-3s-3.5,1-5,0-9.25,3-9.25,3-0.83-3-2.17-4.25-2.58.5-1.33-1.25l2.5-3.5a22.8,22.8,0,0,0-4-1.5,2.26,2.26,0,0,0-2.25,1.5c-0.5,1.25-2.5,2.75-2.25,1s-0.75-2.5,1-4.25,1.25-2.5,3-3.75,1.39-2.75,1.82-4.25,0.1-2.75,1.52-3.25S693.16,817.62,691.25,819Z" fill="#000000"/><path d="M625.5,838.47c0,0.79-1.75,1.75,0,2.5s5,4.22,6.75,4.73,5.75,3.59,7.25,2.93,4.75-2.45,3.75-2.93-8-3.23-9.27-4.48S625.5,836,625.5,838.47Z" fill="#000000"/><path d="M655.25,874.22s-4,6-4.75,7.25-2.75,5-1.25,6.75,1.25,4,4,3,5.5-1.25,5.5-3.75-1.25-2.25-1.25-3.5-3.75,2.5-1.75-1.13,0.5-5.87.75-7.12S655.25,874.22,655.25,874.22Z" fill="#000000"/><path d="M691.17,791.72c-1-.33-3.33-4-4.33-4a8.54,8.54,0,0,0-3,1.33l-3.33,1s-0.33-2.67-.67-4,1-3.33-1.33-3.33a8.83,8.83,0,0,0-4.67,1c-1.33.67-6.67,3.67-6.67,3.67s-3.67,2-5.67,3.33-2,3.67-4,4-3.33,0-2.67-1.67-1.67.67,0.67-1.67,2.67-3,4.67-3.67a19.71,19.71,0,0,0,4-2,8.11,8.11,0,0,0,3.67-2.33c2-2,3-3.33,4-4a16.35,16.35,0,0,1,3.33-1.33s2-.33,1.33-2.67a8.7,8.7,0,0,0-3-4l-2,.33a8.52,8.52,0,0,1-3,0c-1-.33-1.67-1.33-2.33-3s-2.82.92-4,0a33.94,33.94,0,0,1-6-6c-2-2.33-3.67-4.67-3.67-4.67l-3.33-3-3.12-.67c-2.21-1.67-1.88-4.33-1.88-6s2-2.67,3.67-3.67,3.33-2.67,2-3a10.13,10.13,0,0,0-3.79.33s-3.55-1.33-3.55-3.33,4.12-4.13,3.55-4.67c-2.88-2.67-5.88-5-5.88-5s-5.33,0-4.33-1.33,3-7.67,1-8-6.67.67-6.33-.67,2.67-1.33,3-3,1.33-3.67,0-3.67-3.33.33-3.67-1.33a12.69,12.69,0,0,1,.33-4.33s-1-2.33-2.33-2.33-3.67-.67-2-2.33,1.33-2.33.67-3.33-3.67-3.21-3.33-3.77-0.67-1.56-1-2.89-3.33-.67-3.33-0.67-4.67,3.67-4,5.67,1.67,8.33,1.67,8.33l-2.67,2.33s-0.33,6.67-1.67,6.67-3,0-2.33,1.67l-2.33.67s-3.67-3.67-4-1.33,0.67,4.33-1,4.67-4.67,1-5.67,2.33-1.33,4.33-2.67,3.33a10.89,10.89,0,0,1-3-5.33c0-1-.67-1-1.67-3.33s-4.33-3.67-6-2-4.67,2.67-5.67,1.33-3-3.33-.33-4.33,4.67-1,5.33-2.33-0.67-2-1-4-1.67-6.67-1.67-6.67-4-2.33-4.67-2.67-0.33-2.67,2-3a16,16,0,0,0,4.33-1.33s-2.33-3.67-2-4.67,1.67-6,1.67-6,0.67-2.67-.67-3-3.67,2-3.67,2-4,0-4.67-1-2.67-4.33-2.67-4.33-3,2.33-4.33,1-4.33-4.42-4-5.88-2.33-3.44-3-5.45-3,.26-4-1.21,1-2.51,0-3.66-1.32-3.2-2.32-3-2.33-2.14-6-1.81a19.5,19.5,0,0,0-7.67,1.81c-2.67,1.19-5,1.47-7.33,0a9.45,9.45,0,0,0-7-1.81c-3,.33-2.34-2.84-7.17-1.58s-1.83-1.47-3.49,3.39-3.33,9.53-1.67,10.19,1-1.33,1.67.67-4.67,14.33-1.67,15a12.42,12.42,0,0,1,5.16,2.67s-4.16,4.33-2.49,5,3.66,0.67,2.49,2.67-0.84,3.33,0,3.33-0.17.33,0,1.33-1.17,2.33,0,3,3.51-1.67,1.17.67,0.33,1.67-2.33,2.33-4.67,3.67-4.67,3.67-1,1.67-2.33,1.67-2.33-.33-2.67,1.33a9.27,9.27,0,0,0,2.33,7c2,2.33,6.66,5,8.49,7.67s1.17,13.33,2.51,16.33,1.33,9.33,3,10,1.33-3.67,1.67.67-2.33,5.33-3.33,6.33-1.34,5.33-3.84,6.33-5.49,4.33-6.83,5.33-6,4.33-7.33,5-4.33,2-3.33,3,6.67,6.67,7,9,0.67,15.67,1,17.67,4,5.33,1.67,7-4,2.67-4,5,0,7-1.67,5.33-4.33-4-4.67-3-2.11,4.67-2.11,4.67a46.15,46.15,0,0,1-4.61-2.67c-1.94-1.33-5.27-3.33-4.94-5s-0.67-2.33-2.33-4-2.67-4.67-3.67-4-4.19-.33-2.93-2.33,0.74-2,0-5.67-4.41-8.33-3.07-9.67,1-3,.67-7-1.33-5.33-.33-7,0.67-5-.67-5.33-6.33-3-8-2.67-4,1.33-8,0-8.33-2-9-3.33-8-5.33-9.33-5.67a51.37,51.37,0,0,1-6.33-2.67c-1.33-.67-3.67-1-3-2.33s-10.67-7-15-8.33-7-3.67-9.33-5-4-3.67-6.67-2.33-6.33,9.33-7,3.67,0-4.67-1-8.33-3.67-9.33-3.67-10.67,1.67-7.67-2.33-8.33-3.67-.67-5.33-1.67-3.33-.67-3.33-4-4.33-18.33-3.33-21a21.27,21.27,0,0,1,3.33-5.33c0.67-1,3.33.33,1.67-3.67s-7-10.09-4-9.21,5.33,3.46,7.33,0,3-3.86,4-6.66,4.67-5.85,6.67-6.66,3.33-.64,3-3.39-2-6.71-.33-6.39,5.33-.65,7.67,0,2.33-.35,3.67-1.35,2.67-1.23,1.67-4.11-3.67-6.22-5-6.89-3.67-4.33-4.67-4.67,4.33-.33,4.33-0.33a11.63,11.63,0,0,1,2.33,2c1.67,1.67,2.33,3.33,4,2.33s2,0.33,2.85-2.33-2.82-6.67,0-7,5.15,1,6.48,1.33,4.67,3,5.67,1,4.67-5.33,5.33-6.33,4.21-5,6.1-7.33,3.56-5,2.9-6.67-5.67-2.33-6.67-2.67-7.33-.33-8.67-1.67-8.67-12.67-6.33-13.67,4.33,1,5.67,2.33,2.33,3.33,4,4.33,5.67,3,7.33,3,4,0,5.33-1a10,10,0,0,0,4-4.72c1.33-2.95,2-7.28,1.67-9.28s-4.67-4-3-4.67,3.33-1.33,4.67-1a8,8,0,0,1,3.67,2c1,1,8,2.33,10,1s2.79-1,3.73-.67-3.71-4.67.45-4.33,4.63,4,6.39,3,7.1-6.67,8.77-7.67,2.67-18.83,2.33-19.41-6.52-4.92-4.26-7.25-2.07-4.33-1.41-6,2-4.9,3.67-3.62,3,0.28,3.67-1.39,3-3.66.67-4.33-4.67-2.33-3-3.67,4-5,3-5.67a10.86,10.86,0,0,0-4.67-1.33c-1.33,0-.52,1-1.93-1.67s-1.41-5.67-2.07-7.33-4.2-1.33-4.77-1-3.23,2.33-4.9.67-2-2.67-6.67-3.67-4.67-2-6.67.33-3.67,2.33-2,5.33,1,6.33,2.67,8.33,1,6.33,1,6.33l0.67,4-5,1c-1,2.67-2,6.46-3.33,9.23s-3,4.44-2.67,6.44-1.33,4-1.67,2.67-1-6-1.67-2a55.57,55.57,0,0,0-.33,10c0,1.33,4,.33,0,1.33l-4,1s-4.67-4.16-6-7.75-4.33-5.92-2.33-7.25,3.67-2.67,3.67-2.67a8.46,8.46,0,0,0-.67-5.33c-1.33-2.67-4.33-7.33-5-10s-1.33-4-2.67-5.33-3.33-2.33-4.67-1.67-3.33,2.67-2.33,7a12.61,12.61,0,0,1-.67,8.38c-0.67,1.95-3.48,2.28-3.48,2.28s1.18-5.67,0-7-1.85-4.67-2.85-6.67-3.33-3.67-3.67-4.67-1.67-2,.67-2.67,3.67,2,2.33-.67a5.13,5.13,0,0,0-3.33-3,4.64,4.64,0,0,0-4.67-1.67l-3,.67s-6.33-6-5.33-6.67,5.67-3,5.33-4,1.67-3.67,3.33-3.33-6-7.67-6.67-10.33-5.82-7.33-5.08-9.33,0.25-4.06,0-7-4.25-7.31-5.92-8.31-1.33-4.67-1.67-5.67-9.34-3.47-11-1.33a23.61,23.61,0,0,0-3.33,5c-1,2.33,0,3,0,5.33s0.7,4.61-1.65,5-4.5,2.82-3.93,3.76a6.51,6.51,0,0,1-.09,6.94c-2,3,1.54,5.67.77,8s-2.92,6-.68,8.33,1.24,8,7.24,10,6.83,3.33,7.92,6,4.75,3,6.42,2.33,2.9-.74,2.95.3-2.95,4.37-4.28,3.7-1-2.67-2.5-1.33-2,3.33-2.58,5,2.42,0.33,4.42,2.33,2.33,6,1.33,7.33,0,4.67-3.17,5-4.83,2-5.17,4-6.67,2-6.67,2-0.67-1,.33,1.67,0,3.17,1.33,5.59,2,9.75-1.67,8.41-6.8-1.33-5.23-5,4.93-8,3.25-9.67a16.16,16.16,0,0,0-4.92-3.67c-2.1-1-7.69-2.33-7.56-3.67s-3.68-3.28-3.68-3.28-5.19,2.41-4.19,5.18-1.67,5.77,2.67,7.43,4.41,0.67,5.2,2.67-2.15,1.51-3.68,1.59-5.83-3.59-5.83-3.59-3,4.84-7.7,3.59-12.67.92-14,0-3,1.92-5.67,0-6.64-1.92-9.49-3.92-3.21-3.67-4.86-4-3.73.67-4.19,0.67-6.46-1-6.46-1-1.88-4.67-2.77-7.33-1.56-6.33-3.23-6.67-5.67-3-5.67-3a10.38,10.38,0,0,0-5,1.67c-2.67,1.67-5.67,2-8,3.67s-5.33,1.33-2.67,6,3,7.33,6,5.67,4.67-3.33,5.67-5.33-0.33-4,1.33-4.67a7.4,7.4,0,0,1,4,0s3.33,0,2,3-5.33,7-7.67,8-4,1.33-4.33,3.33-2.67-.16-1,3.92,3.67,12.08,3.67,14.08-1.33,7.33-4.33,4.67-5.33-1-5-5.33-0.43-5-1.38-6.67a10.29,10.29,0,0,0-3.29-3c-7.33-8.33-10.33-9.33-10.33-9.33s-3.67,1-4,2-4.67,3.59-4.67,3.59-9.67.59-11,0-4.67-.08-5.67,0-2.67,1.25-4.67,0-5.33-3.59-5.33-3.59-10.33,0-9.17-1,4.17-1,4.17-2.67,3.67-2,4.67-2.67,2,0.47,1.67-1.77-2.33-8.9-6-11.23-6-3-8-1.67a11.82,11.82,0,0,1-4.33,1.67s-14.9-6.33-18.45-9.67-12-.33-13.94-2.33-2.61-4.33-4.61-6.67-4-5.33-7.33-5-9.67-1.67-8.67.67,1.45,7.73-.11,7.53-3.89,3.47-6.23,1.8-4.33-2.33-3-4,2.67-2,1-3.33-0.52-2-1.43-4.33a39.84,39.84,0,0,1-1.57-5.67,1.18,1.18,0,0,0-2.33,0c-0.33,1.33,2.33,4.33,0,5.67s-5,1.67-3.33,3.33,3.33,4,2.33,4.33-1,2.06-2.85,2.2-4.8,0-4.8,0,0,4.13-3.34-1.87-10-22-12.67-23-5,1.67-3,3.67,4.67,3.33,3.33,4a27.23,27.23,0,0,0-4.08,3.33v4s-4.15,4.3-4.58,3.33c-1.33-3,1.33-2.67-1.33-3s-3,1-5.33,2.33-6,2.67-6.33,4-1,6-2.67,7-2.67,1.33-3.33-.33-1-2.67-2.67-1.33a25.44,25.44,0,0,0-3,3c-1.67,1.67-5,3.67-5,2.33s-4-1.67,0-4.67,2.33-3.67,5.67-4.67,7-4,9-2.67,2-3,4.33-5.67a32.62,32.62,0,0,0,4-6s-4-.67-5.67,1-3,2-5.33,3.67-5,5-6.33,5.67-3.33,2.33-5.67,2.67-4,2.4-5,3.2,1.33,0.8-2.33,2.47-5.29,5-5.67,3.33c-1-4.33.33-3.6,0-5.8s-1-2.87-2.33-3.53-6.67,3.67-4.67,5.33,4,2.33,3,4.33l-1,2,3.33,4,1.67,3.67-1.33,4.33s-2.67-3.33-4-5.33,2.78,0-2.11-4.33-7.56-8.67-6.22-5.67a26.76,26.76,0,0,1,1.67,7.33l4.33,4.67s-6,2-6.34.33-3.66-4.67-3.66-4.67l-3-.33-2.67-1.33c-1.33-.67-3.67-0.67-5.33-2.67a47.82,47.82,0,0,0-4.33-4.33s-11-6-12-6.33c-0.55-.18-4.46.59-7.91,1.32L0,690.34S7,692.2,10,692s8.5,3,8.5,3l11,10.77s2.75-1,8.88-4,9-2.48,9-2.48,0.22,8.48,3.18,11,8.45,13,11,15.5,8,15.68,8,15.68l5.67,8.45,15.37,6.36-5.1,15,1.77-.51,2-2.67s-0.67,9.33-2,9.67-1.67,3.67-1.67,3.67l2,3c0.67,1,2.33,1,2.67,2.67s0,7.34,3.33,7.67,3,3,2.67,4.67,0,4,1.33,4.33a17.25,17.25,0,0,1,4.33,2c1,0.67,2,3.33,2,5s-0.33,4.67,1,5.33,5.67-1.67,5.67,0,0.33,4,0,5c0,0-4,3-3,4s3,3.33,5,3.33-0.33,8-.33,8-2.33,2,1,3.33a18.85,18.85,0,0,1,6.33,4c2,1.67,2,3.33,4.67,6s-0.33,1.67,4.67,4.33,6.33,3,8.67,2.67,5,1.67,3.33-2.33a47.37,47.37,0,0,0-5.67-9.33c-1-1.33-5-5.33-5-5.33l-1.67-4a30,30,0,0,1,5.33,1.33c1.33,0.67,5.67,4.67,6.33,6a40,40,0,0,0,3.33,6.33,6.33,6.33,0,0,1,.89,2l229.45-.08s-2.33-7.24,0-5.24,2.67,4,4,5.32,3,2.68,4.33,2.68,7.67,2,9.33,1.67,4.33,2,7,3,3.67,3.33,6.33,3.33,5.33-1,8,0a11.9,11.9,0,0,1,2.43,1.29l0.24-.29c2.49-2.94,11.33-12.67,13-11.69s4.33,0,4.33,0,2.67,5,5,7.34,0.67-2,1.33-4.67,2-2.33,3-2.68,4,7.34,5.33,9.34a6.43,6.43,0,0,0,6,2.33c1.67-.33,4,4.67,3.33,6s4.33,5.67,4.67,6.67a10.69,10.69,0,0,0,4.33,5c2.67,1.67,3,1.33,6.33,2.33a31.09,31.09,0,0,0,7.33,1.33,71.35,71.35,0,0,1,7.67,1.67c1.67,0.33,2.33,2,3,3.33a43,43,0,0,0,4.33,6,5,5,0,0,1,0,6c-1,1.33-2.33,1.67-5,1s-1.67-6-4.24-8.67,0.58,2.33-.42,4.07,1.33,3.93,0,5.26-3,2.33-3.33,4.67-1.33,6.33-1.33,8c0,1-1.66,2.32-3.17,3v10.66c2-.85,4.29-1.81,5.83-2.32,3-1,7.7-2.09,8.67-2.33,5-1.27,8.14-1.57,9.27-1l0.48-.27,4.22-6.91a26.44,26.44,0,0,1-7-.48c-3.85-.82,7.33-5.33,7.33-5.33l5.47-.48c2.14-.14,5.2.81,4.53,0s3.67-3.86,6.33-5.86c1.85-1.39,3.21.43,3,2.9l2.68-1.57,5.17-4,6.17-3.83s5.17,0.33,5.67.33,19.17,0.67,19.17.67,1.83-3.33,3.67-3.67,4.33,0,5.33-1.17,1-3.52,2-5.51,2.83-12.33,3.33-12.83,3.67-5,5.33-4.83,3.67,2.5,4.33,2.5,4.83,0.17,5.83.67-0.83,2.83,0,5.5-1.33,5.48-.33,9,2,5.17,4.17,5.84,3.67,5,4.17,5.5c0.16,0.16.59,0.69,1.12,1.35a1.52,1.52,0,0,0,.21-0.52c0.33-1.67,5.67-5.33,7-5.67l4-1c1.33-.33,2.67-1.67,4-2a6,6,0,0,0,3-1.33c1.33-1,3.67-2.67,3.67-2.67s1,2,0,3.33,4,2.33,4,2.33l-3.33,2.67s-0.67.67-3.33,0-5,1.67-6.67,2.67-6,7-6,7,3.67,2,3.33,4.67-2.33,5,.67,5,5.33-3.33,5.33-3.33a29.08,29.08,0,0,0,5.33-4.33c1.67-2,3-4,4.67-4.67s2.67,0.67,5.67-1.67,4.67-4.33,7-4.33,3.67-1,5.67-2,3,0,2-2.33-1.33-5.33-4-4-4.67,1-5.67.33-5-1.33-6.33-1.33a2.64,2.64,0,0,1-2.67-1.67c-0.33-1-1.67.67-3.67-1.67s-5-2.67-5.33-4-3-3.67-2.33-5.67,3.67-4.67,1-6-2.33-4-4.67-3.33-4,2-5-.33-6.67-1.33-5.33-2.67,7.67-2.33,9.33-2,6-2,6.67-3.67,0.67-7-1.67-8.33-6.67-1.67-9-1.33-9,4.49-11.33,4.41-9,4.92-9,4.92-5.67,4.67-7.67,6-7.33,7-7.33,8-1.67,6-4.33,6,3.67-9.67,5.67-12,4.33-5.67,5.33-7,4.67-3.51,6.33-5.92,3.33-4.74,7-5.41,4.67,0.67,5.67-2.33,4-7,6.67-7.67a39.11,39.11,0,0,1,9.67-1c4,0,21-2.33,25.33-1.33s4.12,1.67,7.06,1.67,10.61-2.67,11.61-3.67a36,36,0,0,1,5.33-5.33c3.67-3,6.67-6,9.67-6.33s6.67,0,9.67-1.67,7-10,7-10V797.06C692.83,796.06,692.17,792.06,691.17,791.72Zm-518.67-194c-2,2,0,5,0,7s-7.67,9-12.33,9.33,1.67-4.67,6.33-10,1-6,0-8-2.33.67-6.33,4.33-3.67,6.67-5,8.67-8-.67-10.67-1.33,1.67-3.33,2.33-7,1-4.33,3.34-8.05-0.67-3.28-2-5.95,0,0-3,1-4,0-6,0-8-.33-8.33-2.67,5.33-2,7.67-3a64.88,64.88,0,0,1,15-3.67c6-.67,8.33-4,9.33-4.33,0,0,4.67-4,5.67-4s6-1,8.67,0-0.67,2.33-2.33,4-1.67,3.33-1,6.33,4.33,2,6.67,2.33,5-3.67,6.67-6,2.33,2.33,3.33,4-1.33,5-3.58,7.33a3.28,3.28,0,0,0-.09,4.61,4.45,4.45,0,0,1-1.67,4.39c-2.33,2-3.33-.67-6.12-1S174.5,595.72,172.5,597.72Zm59.33,74c-2.33,4.67-3,1.33-5.33,1.33s-3.67,1.67-4.33,4.33-2,1.67-4,1.33-4-.67-5.33,0a18.64,18.64,0,0,0-5,3.29l0.16,0c-0.2,0-1.87,1.67-.2,0l0,0c-1.15-.25-8.85-1.74-10.37-3s-7-2-6.76-2.33-8.57-5.33-8.57-5.33a42,42,0,0,1,8.57,2c3.24,1.33,5.1.33,6.1,1s1.67,1.33,5.67,0,1,0,3.75,0,3.25-1.33,1.78-3,0.46-3.33,3.46-5,0-2.67,0-6.67,0,0-2-1.33a7.73,7.73,0,0,1-3.67-4.92c-0.33-1.92-2.67-5.08-5.33-6.39s2-1.69,2-1.69c2-1.69,6.67,5.33,8.67,6.67s3.33-3.67,5.33-3-0.33,1.67,2.67,7.67,2-.67,5.67-3.25-0.33,2.92.67,4.92,3.67,2.67,6,3.33,3.33-1,5-8.25,4-3.42,7.67-6.39,5.33-2,6.33-1.69,5.67,0.33,8,1.69,0.33,3.65-1.33,5-4-1.67-6-1.33,0,0,.67,2.75-2-.08-4,0-1.33-.75-1.33,1.58-2,.67-3.67,1-1.67.67-2,3.81-1,2.86-2.33,4.23S234.17,667.06,231.83,671.72Zm33.67,36.72c-2.33.39-4,1.61-8.67,2.94s-3.67,1.33-7.42,5.33-2.58,3-7.91,3,0.33-4.33,2-7.33,4.33-4.67,7.33-7.33,3-2.67,5.33-3.33,2-4.67,3.4-4.67h5.27c2.67,0,0,2-2.67,4.33s2,2.33,3.33,2.33,2.67-.33,3.67-0.33,1.33,0.67,2,1.67S267.83,708.06,265.5,708.45Zm101,118.94c-0.67,2.67-1.67,5.33-1.67,5.33s-6,1-6.67,0,1.67-13.33,2-17-3.67,1-4,0a10.42,10.42,0,0,0-3-3.67c-1-.67-1.67,1.33-4.69,1.67s-0.65-3.33,0-6-4.45-2.67-4.45-2.67-1.81-3,0-4.67-0.48-2.67-1.48-3-1.33-2-2.67-3.67,2-4.67,4.67-4.33,2.33-1.33,3.33-1.67,1-3.67-2-4.33,0-3,0-3c0-3,8.33,3.67,7.24,5s0.09,3.33,0,7.67,2.76,4.33,3.43,10.33,2,4,2.33,6,2.33,1.33,3.67,2.67,1,3.33,1.67,8S367.17,824.72,366.5,827.39Z" fill="#000000"/></svg>